<svg id="圖層_1" data-name="圖層 1" xmlns="http://www.w3.org/2000/svg" viewBox="0 0 50 50"><defs><style>.cls-1{fill:#fff;}</style></defs><title>logo_114</title><path class="cls-1" d="M8.4,43.55V35.71A7.63,7.63,0,0,1,5,37.15V36A6.35,6.35,0,0,0,8.4,32.83h2V43.55Z"/><path class="cls-1" d="M12.07,43.45v-2h2.14v2Z"/><path class="cls-1" d="M15.2,42.21V40.67a4.39,4.39,0,0,0,3.37,1.84,2.08,2.08,0,0,0,2.34-2.23c0-1.36-.8-2-2.38-2H15.6V32.93h7.09v1.34H17.58V36.9h1.54C21.67,36.93,23,38,23,40.18q-.1,3.47-3.87,3.57A4.72,4.72,0,0,1,15.2,42.21Z"/><path class="cls-1" d="M30.24,43.65V42.51h1c.46,0,.68-.22.64-.75V38.39H29.34q0,4.17-4.81,5.56V42.76a4.63,4.63,0,0,0,2.93-4.37H25.92v-1a1.48,1.48,0,0,0-.25.15,12.83,12.83,0,0,1-1.49.64V37a5.89,5.89,0,0,0,3.13-4.27h2a6.67,6.67,0,0,1-2.92,4.42h7a6.39,6.39,0,0,1-2.93-4.42h1.94A5.9,5.9,0,0,0,35.6,37v1.19a9.74,9.74,0,0,1-1.74-.79v4.46c.06,1.26-.58,1.86-1.94,1.79Z"/><path class="cls-1" d="M36.94,39.93V39h1.93V38.4h1.34V39H42v1h-.48a3.93,3.93,0,0,0,.83,2.45v.51A5.21,5.21,0,0,0,44.75,40h1.34a5.46,5.46,0,0,1-4,3.91v-.79a3.5,3.5,0,0,1-1.7-3.16h-.2V43.8H38.87V39.93h-.2a3.75,3.75,0,0,1-2.05,3.44v-.83a4.23,4.23,0,0,0,1-2.61Zm0-3.74v-1H40a7.77,7.77,0,0,0,2-.28v1a7.91,7.91,0,0,1-1.86.24Zm.43,2.32a9,9,0,0,0-.43-2h1a8.08,8.08,0,0,1,.56,2ZM39,38.12a5.52,5.52,0,0,0-.36-1.66h1a5.18,5.18,0,0,1,.47,1.66Zm1.26.39a7.32,7.32,0,0,0,.67-2h1.15a7.07,7.07,0,0,1-.79,2Zm1.9-.47v-.87a3.41,3.41,0,0,0,2-2.17h1.46A4.4,4.4,0,0,1,42.15,38Zm0,2.72v-.91a4.11,4.11,0,0,0,2.36-2.56h1.38A4.89,4.89,0,0,1,42.15,40.76Z"/><path class="cls-1" d="M.16,22.9V21.73H2.78l.27-.81H5l-.27.81h5.69V22.9H4.18a12.8,12.8,0,0,1-1.81,2.49H4.54V23.63H6.39v1.76h3.66v1.17H6.39v3a1.43,1.43,0,0,1-1.67,1.67H3.28V30.13H4c.42,0,.62-.15.59-.54v-3H.7V25.39A17.7,17.7,0,0,0,2.33,22.9Zm0,7.91v-1A4.39,4.39,0,0,0,2.1,27.19H3.77A4.48,4.48,0,0,1,.21,30.81Zm10.2,0a4.38,4.38,0,0,1-3.48-3.62H8.56a4.6,4.6,0,0,0,1.85,2.62Z"/><path class="cls-1" d="M11.67,22.72V21.59h4.16v-.67h2v.67H22v1.13Zm.09,8.13v-1A2.73,2.73,0,0,0,13.53,28h1.76A4.1,4.1,0,0,1,11.76,30.85Zm1-3.52V23.49H21V25.7c0,1.12-.53,1.66-1.67,1.63H17.82v2.44c0,1-.55,1.44-1.63,1.44H14.93v-1h.4c.48,0,.71-.21.68-.63V27.33Zm1.62-1.13h4.43c.39,0,.57-.16.54-.59v-1h-5Zm7.5,4.65Q19,30.27,18.36,28h1.71a2.81,2.81,0,0,0,1.81,1.94Z"/><path class="cls-1" d="M49.78,15.45c-.21-.63-.9-1.1-2-1.27l-8.91-1.29-4-8.06c-.5-1-1.16-1.53-1.82-1.53s-1.32.51-1.82,1.53l-4,8.06-8.9,1.29c-1.12.17-1.81.64-2,1.27a2.25,2.25,0,0,0,.88,2.2l2.34,2.28h2.78v1.12l2.4,2.4-1.2,1.2-1.23,7.2H31l2.08-1.1,7.2,3.78h.42a7.82,7.82,0,0,0,1.48-.17,11.46,11.46,0,0,0,1.86-1,4.13,4.13,0,0,0-.05-.58l-1.52-8.86,6.44-6.28A2.26,2.26,0,0,0,49.78,15.45ZM40,18.59l-2.83,2.76.67,3.89a1,1,0,0,1-.25,1,1,1,0,0,1-1-.07l-3.5-1.84-3.49,1.84a.82.82,0,0,1-1.3-.94l.67-3.89-2.83-2.76a1,1,0,0,1-.38-1c.09-.28.39-.49.88-.56l3.91-.57L32.26,13c.22-.45.51-.67.8-.67s.58.22.8.67l1.75,3.53,3.91.57c.49.07.79.28.88.56A1,1,0,0,1,40,18.59Z"/></svg>