<svg id="圖層_1" data-name="圖層 1" xmlns="http://www.w3.org/2000/svg" viewBox="0 0 50 50"><defs><style>.cls-1{fill:#fff;}</style></defs><title>logo_28</title><path class="cls-1" d="M49.56,16c-.18-.58-.81-1-1.84-1.16l-8.16-1.19L35.91,6.22c-.46-.93-1.07-1.4-1.67-1.4s-1.21.47-1.67,1.4l-3.65,7.39L20.75,14.8c-1,.15-1.65.58-1.84,1.16a1.56,1.56,0,0,0,.25,1.31,14.2,14.2,0,0,1,4,.18,2.84,2.84,0,0,1,2.16.83,3.59,3.59,0,0,1,.41,2.56c0,.58-.1,1.15-.16,1.72a2.55,2.55,0,0,1,0,1.1v0l0,0-1,6a5.59,5.59,0,0,0,.63.74h8.05l1-.51,5.26,2.77h4.78a3.52,3.52,0,0,0,0-.9l-1.39-8.13L48.75,18A2.07,2.07,0,0,0,49.56,16Zm-9,2.88L38,21.37l.62,3.57c.07.45,0,.77-.24.92a.89.89,0,0,1-1-.06l-3.2-1.69L31,25.8a.89.89,0,0,1-1,.06c-.22-.15-.31-.47-.23-.92l.61-3.57-2.6-2.53a.91.91,0,0,1-.35-.88c.08-.26.36-.45.81-.51l3.58-.52,1.6-3.25c.2-.41.47-.61.74-.61s.53.2.73.61l1.6,3.25,3.58.52c.45.06.73.25.81.51A.91.91,0,0,1,40.61,18.84Z"/><path class="cls-1" d="M20.46,39.89c0,1-.56,1.58-1.67,1.58H12.84v-2h5.48V38H12.84V33.37h7.24v2H15v1.43h4a1.83,1.83,0,0,1,1.19.3,1.39,1.39,0,0,1,.34,1Z"/><path class="cls-1" d="M22.41,36.4h11v5c0,.94-.55,1.4-1.65,1.4H27.57V41.16h3.56c.28,0,.41-.13.41-.37V38H26.68l-1.61,4.13a.76.76,0,0,1-.75.62h-2V41.16h1c.09,0,.15-.06.2-.18l1.13-3H22.41Zm1.23-3.15h1.92l-.82,2a.91.91,0,0,1-.89.63H22.47v-1.6h.66c.11,0,.2-.07.25-.22Zm-.14-2.16h7.74a.9.9,0,0,1,.74.38l1.08,2.09c.14.32.33.47.55.47h.31v1.85H33c-.3,0-.6-.22-.9-.67l-1.47-2.27a.69.69,0,0,0-.48-.2H23.5Z"/><path class="cls-1" d="M3,18.66H5.27l-2.61,3H9.14c.13,0,.19-.05.19-.14l-.63-2h1.88l.6,1.78a2.56,2.56,0,0,1,.09.39v.84c0,.54-.38.81-1.12.81H.38v-1.6ZM.63,24.18H11v4.45c0,.78-.49,1.17-1.46,1.17H.63Zm7.92,4.07c.33,0,.49-.14.49-.4V25.73H2.56v2.52Z"/><path class="cls-1" d="M12.67,22h1.59l.21,1.13c0,.14.07.22.14.22h.57V24.8H14a.81.81,0,0,1-.81-.69Zm1.06,3.67h1.7l-.6,3c-.15.7-.54,1.06-1.15,1.06h-1V28.15h.43c.11,0,.19-.14.26-.42Zm-1-6.87h1.6l.25,1.14c0,.14.07.21.14.21h.48v1.51H14.11a.81.81,0,0,1-.81-.71Zm6.15-.2H20.7v.53h3.15v1.27H21.52v2.56H20.07V20.36h-.58v2.56H18V20.36H15.81V19.09h3Zm-2.17,2.38H18l-.4,1.36a.7.7,0,0,1-.76.47H16V21.62h.48s.08,0,.1-.12ZM16,23.31h7.59v2q0,.93-.87.93h-5v.44c0,.06.07.09.23.09H23.8v2c0,.64-.29,1-.88,1H16.78V28.58h4.44q.78,0,.78-.15V28H16.88c-.58,0-.87-.31-.87-.92v-2h5.66c.16,0,.23,0,.23-.09v-.44H16Zm5.56-2.37h1.36l.18.52c0,.07.06.11.11.11h.48v1.15h-1a.63.63,0,0,1-.65-.43Z"/><path class="cls-1" d="M36.14,39.48h1.31L37,41.94c-.12.57-.42.86-.88.86h-.75V41.6h.3c.07,0,.14-.12.2-.35Zm4.37-6.09H42a1.76,1.76,0,0,1-.4,1.16,1.23,1.23,0,0,1-.91.31H35.4V33.68h4.66A.47.47,0,0,0,40.51,33.39Zm.74,4.41V39H39.08v3.79H37.73V39H35.48V37.8h2.25v-.65h1.35v.65Zm-5.73-2.53h1.23v.49c0,.11.07.16.21.16h.19v1h-.9c-.48,0-.73-.21-.73-.61Zm2,0h1.24v.49c0,.11.06.16.19.16h.26v1h-1c-.49,0-.74-.21-.74-.61Zm1.84,4.21h1.31l.29,1.8c0,.21.13.32.29.32h.08v1.2h-.74c-.39,0-.63-.22-.74-.66ZM40,35.27H41.2v1.07c0,.4-.24.61-.73.61h-.94v-1h.28c.11,0,.17-.05.17-.16Zm4.66-1.8-.46,2.43a.79.79,0,0,1-.85.68H41.74V35.35h.73a.35.35,0,0,0,.36-.27l.37-1.61Zm.12,3.35-.44,2.24a.71.71,0,0,1-.78.63h-1.8V38.46h.94a.29.29,0,0,0,.31-.23l.34-1.41ZM44.85,40l-.42,2.21a.72.72,0,0,1-.78.62H41.74V41.57H42.8a.3.3,0,0,0,.3-.23L43.41,40Z"/></svg>