<svg id="圖層_3" data-name="圖層 3" xmlns="http://www.w3.org/2000/svg" viewBox="0 0 50 50"><defs><style>.cls-1{fill:#fff;}</style></defs><title>logo_116</title><path class="cls-1" d="M19.62,37.25c0-.54-.68-.32-1.51.49L15.83,40c-.83.8-1.58.52-1.68-.63l-.59-7a4.24,4.24,0,0,0-2-3.07L5.29,26c-1-.53-1-1.34.07-1.79l6.5-2.73a4.25,4.25,0,0,0,2.29-2.88l1.2-6.95c.19-1.13,1-1.35,1.72-.48l4.61,5.34a4.3,4.3,0,0,0,3.45,1.29l7-1c1.14-.16,1.63.45,1.07,1.37a10,10,0,0,0-.87,1.58,4.34,4.34,0,0,1,1-.08c.38,0,1.18-.81,1.78-1.8l1.37-2.26c.6-1,.15-1.66-1-1.49l-9.65,1.4a4.3,4.3,0,0,1-3.45-1.29L16,6.79c-.75-.88-1.53-.66-1.72.48L12.6,16.88a4.25,4.25,0,0,1-2.29,2.88l-9,3.78C.26,24,.22,24.8,1.24,25.33l8.64,4.55a4.26,4.26,0,0,1,2,3.06l.82,9.73c.09,1.15.85,1.43,1.68.62l3.7-3.61A4.81,4.81,0,0,0,19.62,37.25Z"/><path class="cls-1" d="M23.41,28.4h1.11a1.75,1.75,0,0,1-.31,1,.84.84,0,0,1-.67.26h-.28v.72h1.33v1.07H23.26v5.62H22.12V32.73l-.19,3.44a.87.87,0,0,1-.22.6.71.71,0,0,1-.53.22H20.8v-.74l0,0c.12,0,.18-.38.18-.59L21.22,32h.9v-.6H21V30.37h1.17v-.72H21.07v-1h2A.34.34,0,0,0,23.41,28.4ZM23.26,32h.95l.2,3.65c0,.18.08.26.18.26v1h-.52c-.35,0-.56-.28-.62-.83Zm2.09-3.48H26.5L26,32.67c-.13.95-.46,1.42-1,1.42h-.53V33h.15q.2,0,.3-.75Zm3,4.52h1.29l-1.12,3.39c-.11.4-.29.59-.55.59H24.83V36h2.53c.13,0,.23-.12.3-.38Zm-1.79-4.76h1.13v5.86a1,1,0,0,1-.28.72.84.84,0,0,1-.66.26h-.92V34.09h.51c.14,0,.22-.16.22-.49Zm1.29.24H29l.3,3c0,.2.13.3.28.3h.07v1H29c-.44,0-.69-.28-.76-.84Z"/><polygon class="cls-1" points="15.47 32.92 14.98 29.68 18.09 30.7 16.08 31.11 15.47 32.92"/><rect class="cls-1" x="18.25" y="30.04" width="0.59" height="7.68" transform="translate(-17.53 20.09) rotate(-40.38)"/><path class="cls-1" d="M32.92,28.4H34a1.61,1.61,0,0,1-.31,1,.84.84,0,0,1-.67.26h-.28v.72h1.33v1.07H32.76v5.62H31.63V32.73l-.19,3.44a.87.87,0,0,1-.23.6.71.71,0,0,1-.53.22h-.37v-.74l0,0c.12,0,.18-.38.18-.59L30.72,32h.91v-.6H30.45V30.37h1.18v-.72H30.57v-1h2A.36.36,0,0,0,32.92,28.4ZM32.76,32h1l.2,3.65c0,.18.08.26.18.26v1h-.52c-.35,0-.56-.28-.62-.83Zm2.09-3.48H36l-.51,4.11c-.13.95-.46,1.42-1,1.42H34V33h.15c.13,0,.23-.25.31-.75Zm3,4.52h1.29l-1.12,3.39c-.11.4-.29.59-.55.59H34.33V36h2.54c.12,0,.22-.12.29-.38Zm-1.79-4.76h1.14v5.86a1,1,0,0,1-.29.72.83.83,0,0,1-.65.26h-.92V34.09h.5c.14,0,.22-.16.22-.49Zm1.29.24h1.14l.3,3c0,.2.13.3.28.3h.07v1h-.73c-.43,0-.69-.28-.76-.84Z"/><path class="cls-1" d="M21.16,20.75h4.18c.4,0,.61,0,.76-.26h1.23c-.11.45-.41.67-1,.67H24.78v.57h2.79v.4H24.78v.45h2.13a.47.47,0,0,1,.47.47v1.7a.46.46,0,0,1-.47.46H24.78v.53H27.3v.4H24.78v.57h2.79v.4H20.92v-.4h2.79v-.57H21.18v-.4h2.53v-.53H21.58a.46.46,0,0,1-.47-.46v-1.7a.47.47,0,0,1,.47-.47h2.13v-.45H20.92v-.4h2.79v-.57H21.16Zm1,2.95h1.54V23H22.44a.28.28,0,0,0-.27.27Zm.27,1.11h1.27V24.1H22.17v.44A.28.28,0,0,0,22.44,24.81ZM24.78,23v.72h1.53v-.45A.28.28,0,0,0,26,23Zm1.53,1.12H24.78v.71H26a.28.28,0,0,0,.27-.27Z"/><path class="cls-1" d="M29.29,25.48a3,3,0,0,1-.45,1.63H27.73a3,3,0,0,0,.49-1.63V21.67a.48.48,0,0,1,.47-.47h2.25v-.7H32v.7h2.35v.4H29.55a.27.27,0,0,0-.26.27Zm.27-2.13h1.78V22.18h1.07v1.17h2v.4H32.53a12.8,12.8,0,0,0,1.68,3.37H33.06A9.92,9.92,0,0,1,31.88,25a9.92,9.92,0,0,1-1.18,2.15H29.53a12.22,12.22,0,0,0,1.68-3.37H29.56Z"/><path class="cls-1" d="M39.29,37.09a24,24,0,0,0,1.34-3.89H40l.09-.53H42l.12-.71h1.41l-.12.71h1.93l-.1.53h-.64a18.86,18.86,0,0,0,0,3.89H43.24a19.85,19.85,0,0,1,.08-3.89h0l-1,4.92H40.91l1-4.92h0a25,25,0,0,1-1.29,3.89Zm1.33-5.44.24-2.14h1.25l-.22,2.14Zm.18-2.94h2.61a1.19,1.19,0,0,0,1.11-.45h1.56a1.52,1.52,0,0,1-1.55,1H40.7Zm1.52,2.94.23-2.14h1.27l-.23,2.14Zm1.55,0,.53-2.14h1.26l-.52,2.14ZM49,30.9a10.89,10.89,0,0,1-2.2,2.62H45.29a13.09,13.09,0,0,0,2.39-2.62Zm.48-3a11.28,11.28,0,0,1-2.2,2.64H45.75a12.87,12.87,0,0,0,2.39-2.64Z"/><path class="cls-1" d="M49,34.1a37.6,37.6,0,0,1-2.43,3.29,7.91,7.91,0,0,1-2.34,2c-1.7.94-4.74,1.17-6.63,1.12-1.36,0-2.71-.14-4.06-.31-.67-.09-1.34-.18-2-.31s-1.05-.34-1.6-.39a51.13,51.13,0,0,0,6.19.16A22.64,22.64,0,0,0,42,38.72c2.79-.88,5.47-4.76,5.47-4.76Z"/><path class="cls-1" d="M40.22,24.93a1.08,1.08,0,0,1-.4-.49,1,1,0,0,1,0-.6,1.12,1.12,0,0,1,.58-.7,1.33,1.33,0,0,1,1-.06,1.32,1.32,0,0,1,.83.6,1.14,1.14,0,0,1,.11.92.9.9,0,0,1-.31.48,1.1,1.1,0,0,1-.59.21,1.3,1.3,0,0,1,.49.61,1.23,1.23,0,0,1,0,.76,1.3,1.3,0,0,1-.67.83,1.49,1.49,0,0,1-1.16.08,1.55,1.55,0,0,1-.94-.69,1.32,1.32,0,0,1-.11-1.08,1.2,1.2,0,0,1,.42-.65A1.22,1.22,0,0,1,40.22,24.93Zm-.61,1a.93.93,0,0,0,0,.47.78.78,0,0,0,.22.43,1.13,1.13,0,0,0,.43.26.91.91,0,0,0,.71-.07.85.85,0,0,0,.44-.55.9.9,0,0,0-.07-.72.93.93,0,0,0-.57-.45.91.91,0,0,0-.71.07A.88.88,0,0,0,39.61,26Zm.77-2a.7.7,0,0,0,0,.57.76.76,0,0,0,.46.35.74.74,0,0,0,.57-.05.7.7,0,0,0,.34-.43.66.66,0,0,0-.06-.55.77.77,0,0,0-1-.31A.65.65,0,0,0,40.38,24Z"/><path class="cls-1" d="M35,24a16.14,16.14,0,0,1,1.71.33s0,0,0-.08a4,4,0,1,1,7.59,2.44,3.76,3.76,0,0,1-.23.55A7.45,7.45,0,0,1,46,26.41,5.82,5.82,0,0,0,34.93,24Z"/></svg>