<svg id="圖層_1" data-name="圖層 1" xmlns="http://www.w3.org/2000/svg" viewBox="0 0 50 50"><defs><style>.cls-1{fill:#fff;}</style></defs><title>logo_112</title><path class="cls-1" d="M.59,20.81v-1H2.36v-.68H3.91v.68H5.59v1H3.91v.78H5.4v3C5.46,25.63,5,26.1,4,26H3.91v.77H5.77V27.9H3.91v1.68H2.36V27.9H.54V26.81H2.36V26H.86V21.59h1.5v-.78Zm1.59,1.82v.73H4.13v-.73Zm0,2.41H3.59c.39,0,.57-.17.54-.59v-.14H2.18Zm3.59-4V19.91H7v-.82H8.58v.82H11V21H8.58v1.13h2.14v1.14H8.58v1.18H11V27c0,1-.44,1.48-1.41,1.45H8.85v-1h.23c.3,0,.44-.12.41-.46V25.58H8.58v4H7v-4H5.68V24.45H7V23.27h-1V22.13H7V21Z"/><path class="cls-1" d="M12.49,29.35v-9.9h9.9v8.22a1.44,1.44,0,0,1-1.68,1.68Zm1.68-1H20c.48,0,.73-.25.73-.77v-7H14.17Zm.45-6V21.31h5.63v1.05H18.16v1.22H20v1.05H18.16v1.82h2.18v1H14.53v-1h2V24.63H14.85V23.58h1.68V22.36Zm4.23,3.86a6.42,6.42,0,0,0-.37-1.32h1.14a3.25,3.25,0,0,1,.5,1.32Z"/><path class="cls-1" d="M8.25,43V35.14a7.6,7.6,0,0,1-3.39,1.45V35.44a6.44,6.44,0,0,0,3.39-3.19H10.3V43Z"/><path class="cls-1" d="M12,42.93v-2h2.14v2Z"/><path class="cls-1" d="M15.09,41.68V40.13A4.44,4.44,0,0,0,18.48,42a2.09,2.09,0,0,0,2.35-2.25q0-2-2.4-2H15.49V32.35h7.14v1.34H17.49v2.65H19q3.84,0,3.89,3.29-.09,3.49-3.89,3.59A4.73,4.73,0,0,1,15.09,41.68Z"/><path class="cls-1" d="M30.21,43.12V42h1c.46,0,.68-.22.65-.75v-3.4H29.31q0,4.2-4.84,5.59V42.23a4.66,4.66,0,0,0,3-4.4H25.87v-1a1.48,1.48,0,0,0-.25.15,14.8,14.8,0,0,1-1.5.65v-1.2a5.91,5.91,0,0,0,3.15-4.29h2a6.67,6.67,0,0,1-2.94,4.44H33.4a6.46,6.46,0,0,1-2.94-4.44h1.95a5.92,5.92,0,0,0,3.19,4.29v1.2a10.19,10.19,0,0,1-1.75-.8v4.49c.07,1.26-.58,1.86-1.94,1.79Z"/><path class="cls-1" d="M37.85,39.39v-1h1.94v-.56h1.35v.56h1.78v1h-.47a3.86,3.86,0,0,0,.83,2.46v.51a5.21,5.21,0,0,0,2.42-2.93h1.35a5.49,5.49,0,0,1-4,3.93v-.8a3.53,3.53,0,0,1-1.7-3.17h-.2v3.89H39.79V39.39h-.2a3.78,3.78,0,0,1-2.06,3.45V42a4.26,4.26,0,0,0,.95-2.62Zm0-3.77v-1h3.13a7.79,7.79,0,0,0,2-.28v1a7.91,7.91,0,0,1-1.86.24ZM38.24,38a9.1,9.1,0,0,0-.43-2.06h1A8,8,0,0,1,39.39,38Zm1.67-.4a5.84,5.84,0,0,0-.36-1.66h1a5.08,5.08,0,0,1,.48,1.66Zm1.27.4a7.38,7.38,0,0,0,.67-2.06H43A6.87,6.87,0,0,1,42.21,38Zm1.9-.48v-.87a3.46,3.46,0,0,0,2-2.18h1.47A4.44,4.44,0,0,1,43.08,37.48Zm0,2.74v-.91a4.17,4.17,0,0,0,2.38-2.58h1.39A4.91,4.91,0,0,1,43.08,40.22Z"/><path class="cls-1" d="M49.94,15.73c-.21-.63-.89-1.1-2-1.26l-8.87-1.29-4-8c-.5-1-1.16-1.52-1.82-1.52S32,4.13,31.46,5.14l-4,8-8.87,1.29c-1.12.16-1.81.63-2,1.26a2.25,2.25,0,0,0,.88,2.19l.45.43h5.27V23.5l.7.68-1,5.73a15.12,15.12,0,0,1,1.23,1.3h8.62v0l.49-.26,5,2.63c.71.16,1.43.23,2.14.41h2.66a7.53,7.53,0,0,0,1.14-.1,4.12,4.12,0,0,0-.06-.9l-1.52-8.84,6.43-6.26A2.25,2.25,0,0,0,49.94,15.73ZM40.2,18.86l-2.82,2.75.67,3.88a.81.81,0,0,1-1.29.94L33.27,24.6l-3.48,1.83a1,1,0,0,1-1,.07,1,1,0,0,1-.25-1l.67-3.88-2.82-2.75a1,1,0,0,1-.39-1c.09-.27.39-.48.88-.55l3.9-.57,1.74-3.53c.22-.44.5-.66.79-.66s.58.22.8.66l1.74,3.53,3.9.57c.49.07.79.28.88.55A1,1,0,0,1,40.2,18.86Z"/></svg>