<svg id="圖層_1" data-name="圖層 1" xmlns="http://www.w3.org/2000/svg" viewBox="0 0 50 50"><defs><style>.cls-1{isolation:isolate;}.cls-2{fill:#fff;}.cls-3{fill:none;}.cls-4{fill:#a4f8fc;}</style></defs><title>logo_110</title><g class="cls-1"><path class="cls-2" d="M2.93,43V41C4.42,39.58,5.11,37.22,5,34H7.77Q8,40.19,2.93,43ZM16.67,30.69v1.87H3.11V30.69h5.2V29.11H11.4v1.58ZM16.85,43Q11.77,40.19,12,34h2.79c-.12,3.26.56,5.62,2.06,7.08Z"/><path class="cls-2" d="M21,35.35V34.14a17.61,17.61,0,0,1-2.72.85V33.35a9.74,9.74,0,0,0,5.51-4.42H27a9.74,9.74,0,0,0,5.51,4.42V35c-1-.25-1.91-.51-2.72-.79v1.15Zm-1.09,7.26V36.5H31v3.87c0,1.53-.73,2.28-2.3,2.24Zm5.51-11.2a16.74,16.74,0,0,1-3,2.18h6.06A16.74,16.74,0,0,1,25.38,31.41Zm-2.9,6.84V41h5.08c.48,0,.73-.22.73-.79V38.25Z"/><path class="cls-2" d="M42.15,31.66a10.88,10.88,0,0,1-1.21,3.2H39.36v.55h2.48V37.1h-.48a6.84,6.84,0,0,0,1.09,3.51v.67A7.49,7.49,0,0,0,45.9,37h2.36A8,8,0,0,1,42.15,43V41.88c-1.7-.8-2.59-2.4-2.67-4.78h-.12v5.81H37V37.1h-.18a5.48,5.48,0,0,1-3.15,5.27V40.86a6.22,6.22,0,0,0,1.27-3.76H34.1V35.41H37v-.79h2.24a8.27,8.27,0,0,0,.85-3Zm-8.11,0h1.81a10.69,10.69,0,0,1,.85,3.2h-2A15.34,15.34,0,0,0,34,31.66Zm.06-2H39a7.75,7.75,0,0,0,3-.49V31a10.12,10.12,0,0,1-2.78.36H34.1Zm2.54,2h1.81a7.4,7.4,0,0,1,.73,2.6h-2A12.52,12.52,0,0,0,36.64,31.66Zm5.51,2.54V32.62A4.9,4.9,0,0,0,45,29.36h2.54A6.7,6.7,0,0,1,42.15,34.2Zm0,4.11V36.74a6.24,6.24,0,0,0,3.45-3.87H48A7.47,7.47,0,0,1,42.15,38.31Z"/></g><path class="cls-3" d="M23.6,20.8a1.88,1.88,0,0,1-.8-.2h0a1,1,0,0,1-.4-.9V16.5h-2v.9H21v2.8q.15.6-.6.9v.8a2.11,2.11,0,0,0,1.6-.6,1.61,1.61,0,0,0,1.3.6h4.9v-1C28.3,20.8,23.6,20.8,23.6,20.8Z"/><path class="cls-3" d="M41.5,10.7c.1.1.2.3.3.4C41.6,10.9,41.5,10.8,41.5,10.7Z"/><path class="cls-3" d="M44,15.1c.1.1.1.3.2.4C44.1,15.4,44.1,15.2,44,15.1Z"/><path class="cls-3" d="M43.6,14.2a1.42,1.42,0,0,1,.2.6A4.17,4.17,0,0,0,43.6,14.2Z"/><path class="cls-3" d="M24.9,19.4v1.2h1.2V19.4a3.82,3.82,0,0,0,2.1,1.1v-.9a5.71,5.71,0,0,1-1.6-1.4h.3c.8,0,1.1-.4,1.1-1.2V15.8H26.2v-.4h2.1v-.9H26.2V14H24.9v.5h-2v.9H25v.4H23.1v2.5h1.3a7.31,7.31,0,0,1-1.6,1.4v.9h0A5.28,5.28,0,0,0,24.9,19.4Zm1.3-2.6h.7V17c0,.3-.1.5-.4.5h-.3C26.3,17.4,26.3,16.8,26.2,16.8Zm-1.9.6v-.7H25v.7Z"/><path class="cls-3" d="M22.8,16a16.19,16.19,0,0,0-.6-1.7H20.9a3.69,3.69,0,0,1,.5,1.7Z"/><path class="cls-3" d="M14.6,19.3V17.9a5.12,5.12,0,0,1-.7-1.8h.6v-.9h-.6v-1H12.6v1h-.8v.9h.8a14,14,0,0,1-.9,2.9v1.3a5.08,5.08,0,0,0,.9-1.3v3h1.3V18.4A3.11,3.11,0,0,0,14.6,19.3Z"/><path class="cls-3" d="M19.7,17.7v-.9H18.4a5.67,5.67,0,0,0,.8-1.3v-.9H14.8v.9h.4V16a18.46,18.46,0,0,1-.2,2.9,4.24,4.24,0,0,1-.6,1.9V22a6.19,6.19,0,0,0,1.8-3.1,5.3,5.3,0,0,0,.8,1.5,14.8,14.8,0,0,1-1.3.8V22a21.57,21.57,0,0,0,2-.9,5.12,5.12,0,0,0,2.1.9h.1v-.8a2.42,2.42,0,0,1-1.3-.8A5.23,5.23,0,0,0,19.7,17.7Zm-2,1.8a6.47,6.47,0,0,1-.4-1.3h-.9a12.12,12.12,0,0,0,.1-2v-.8h1.2a3.1,3.1,0,0,1-.6,1.3v1h1.1A3.2,3.2,0,0,1,17.7,19.5Z"/><path class="cls-3" d="M43.5,14a3,3,0,0,0-.4-.8c-.4-.7-.8-1.2-1.1-1.8a6.37,6.37,0,0,1,1,1.8A1.37,1.37,0,0,1,43.5,14Z"/><path class="cls-3" d="M43.4,24.8c1.9-1.5,2.2-4.9,1-8.7C45.6,19.8,45.3,23.3,43.4,24.8Z"/><path class="cls-2" d="M40.1,17.3l-.2-.3-.9.5-2.2-3.7-.3.1V15c0,.5-.1.9-.1,1.3s-.1,1-.2,1.4A4.44,4.44,0,0,1,36,19l.2.4,2.6-1.5.9,1.4.4-.2-.9-1.4ZM36.5,19c0-.3.2-.6.2-.9s.1-.7.1-1,.1-.9.1-1.2V14.7l1.8,3.1Z"/><path class="cls-2" d="M42.7,13.2C40,8.5,36,5.9,33.6,7.2s-2.2,6.3.5,10.9,6.7,7.3,9.1,6S45.3,17.9,42.7,13.2ZM43,23.3c-2.2,1.3-6-1.1-8.5-5.5S31.9,9,34.1,7.7s6,1.2,8.5,5.5S45.2,22.1,43,23.3Z"/><path class="cls-2" d="M17.1,16.8a3.79,3.79,0,0,0,.6-1.3H16.5v.8a12.12,12.12,0,0,1-.1,2h1a5,5,0,0,0,.4,1.3,4.24,4.24,0,0,0,.6-1.8H17.3v-1Z"/><path class="cls-2" d="M26.9,17v-.2h-.7v.7h.3A.51.51,0,0,0,26.9,17Z"/><path class="cls-2" d="M45.3,17.7A20.12,20.12,0,1,0,6,26.3a35.8,35.8,0,0,0,1.1,3.5h.3V28.3h5.7v1.5h5.1v2.6a8.84,8.84,0,0,0,4.4-3.5l.4-.8h4.8l.4.8a7.73,7.73,0,0,0,4.3,3.5L32,30.7h.6V28.8h6.2a7.66,7.66,0,0,0,2.5-.4l1.8-.7v2.4a1.45,1.45,0,0,0,.2-.7l.3-.9h1.1A18.85,18.85,0,0,0,45.3,17.7Zm-23-3.4a16.19,16.19,0,0,1,.6,1.7H21.5a3.69,3.69,0,0,0-.5-1.7ZM13.9,22H12.6V19a3.81,3.81,0,0,1-.9,1.3V19a16.12,16.12,0,0,0,.9-2.9h-.8v-.9h.8v-1h1.3v1h.6v.9h-.6a5.12,5.12,0,0,0,.7,1.8v1.4a5.5,5.5,0,0,1-.7-.9V22Zm5.9,0h0a9.77,9.77,0,0,1-2.2-.9,6.25,6.25,0,0,1-2,.9v-.9a4.89,4.89,0,0,0,1.3-.8,7.14,7.14,0,0,1-.8-1.5A5.61,5.61,0,0,1,14.4,22V20.9A4.24,4.24,0,0,0,15,19a19.53,19.53,0,0,0,.2-2.9v-.5h-.4v-.9h4.4v.9a3.22,3.22,0,0,1-.8,1.3h1.3v.9a5.19,5.19,0,0,1-1.2,2.8,3.53,3.53,0,0,0,1.3.8Zm8.5-.2H23.4a1.49,1.49,0,0,1-1.3-.6,2.11,2.11,0,0,1-1.6.6V21q.75-.3.6-.9V17.3h-.6v-.9h2v3.2a1,1,0,0,0,.4.9v-.9c.7-.5,1.1-1,1.6-1.4H23.2V15.7H25v-.4H22.9v-.9h2V14h1.3v.5h2.1v.9H26.2v.4H28V17c0,.9-.4,1.2-1.1,1.2h-.3a4.39,4.39,0,0,0,1.6,1.4v.9a5.81,5.81,0,0,1-2.1-1.1v1.2H24.9V19.4a4.22,4.22,0,0,1-2.1,1.1,1.55,1.55,0,0,0,.8.2h4.8l-.1,1.1Zm15.1,3c-.2.1-.3.3-.5.4-2.9,1.5-7.3-1.4-10.1-6.5s-2.7-10.4.2-12c2.3-1.2,5.7.5,8.4,3.9.1.1.2.3.3.4s.2.3.3.4a17.39,17.39,0,0,1,1.1,1.8c.1.3.3.5.4.8,0,.1.1.1.1.2a1.42,1.42,0,0,1,.2.6c.1.2.1.3.2.5s.1.3.2.4.1.4.2.6C45.6,19.8,45.3,23.3,43.4,24.8Z"/><path class="cls-2" d="M33,18.7c-2.8-5-2.7-10.5.2-11.9,2.3-1.2,5.7.5,8.3,3.9-2.7-3.4-6.1-5.1-8.4-3.9-2.9,1.4-3,6.7-.1,11.9,2.7,5.1,7.1,8,10,6.5a1,1,0,0,0,.5-.4c-.2.1-.3.2-.5.3C40.2,26.6,35.7,23.7,33,18.7Z"/><path class="cls-4" d="M43.8,14.7c.1.2.1.3.2.5C44,15,43.9,14.9,43.8,14.7Z"/><path class="cls-4" d="M44.2,15.5c.1.2.1.4.2.6A1.42,1.42,0,0,1,44.2,15.5Z"/><path class="cls-4" d="M43.5,14c0,.1.1.1.1.2A.31.31,0,0,1,43.5,14Z"/><path class="cls-4" d="M41.7,11.1c.1.1.2.3.3.4A1.38,1.38,0,0,0,41.7,11.1Z"/><rect class="cls-2" x="24.3" y="16.8" width="0.7" height="0.7"/><path class="cls-3" d="M36.9,15.9c0,.4-.1.9-.1,1.2s-.1.8-.1,1-.2.6-.2.9l2.2-1.2-1.8-3.1Z"/><path class="cls-3" d="M36.9,15.9c0,.4-.1.9-.1,1.2s-.1.8-.1,1-.2.6-.2.9l2.2-1.2-1.8-3.1Z"/><path class="cls-2" d="M39.6,12.5c0,.2-.1.3-.2.5s-.2.3-.3.5-.3.3-.4.5l.2.3c.2-.3.4-.5.6-.8a2,2,0,0,0,.4-.8l2.9,5,.4-.2L40,11.9C39.6,12.1,39.6,12.3,39.6,12.5Z"/></svg>