<svg id="圖層_1" data-name="圖層 1" xmlns="http://www.w3.org/2000/svg" viewBox="0 0 49.24 44.21"><defs><style>.cls-1{fill:#fff;}</style></defs><title>五分六合彩反白50*50</title><path class="cls-1" d="M43.5,14c-2.88-5.07-7.33-8-9.93-6.5s-2.38,6.79.5,11.86,7.33,8,9.93,6.5S46.38,19.06,43.5,14Zm-8.87,5C32,14.35,31.77,9.46,34.17,8.09s6.5,1.32,9.16,6,2.86,9.57.46,10.94S37.28,23.71,34.63,19Z" transform="translate(-0.37 -1.68)"/><polygon class="cls-1" points="13.07 20.74 15.17 20.74 15.17 17.65 13.39 17.65 13.07 20.74"/><path class="cls-1" d="M46.39,18.92A21.86,21.86,0,1,0,4.86,32h.34V30.34h6.22V32H17v2.79a8.72,8.72,0,0,0,4.72-3.85l.41-.79h5.25l.41.79a8.69,8.69,0,0,0,4.66,3.83L31.92,33h.59V30.92h6.72a7,7,0,0,0,2.65-.43l2-.71v2.53a5.24,5.24,0,0,0,.26-.67l.32-1h1.29A21.76,21.76,0,0,0,46.39,18.92ZM18.06,23.37H9.75v-1h2.06l.32-3.09H10.31V18.08h1.92l.18-1.7H10V15.23h7.78v1.16H14l-.18,1.78h3.2v4.16h1Zm9-4L26.37,19l-.46-.23v3.32a1.22,1.22,0,0,1-1.42,1.43H23.14V22.49h.71q.46,0,.43-.5V19.55H22.71q-.11,3.2-3.59,4.21v-1a3.54,3.54,0,0,0,2-3.24h-.92v-.81a10.74,10.74,0,0,1-1.28.62V18.28A4.1,4.1,0,0,0,21,15h1.63a5,5,0,0,1-2,3.36h4.62a5,5,0,0,1-2-3.36h1.63a4.48,4.48,0,0,0,2.13,3.24ZM43.8,26.94c-3,1.63-7.9-1.51-10.85-7S30.08,8.63,33.12,7,41,8.51,44,14,46.84,25.31,43.8,26.94Z" transform="translate(-0.37 -1.68)"/><path class="cls-1" d="M.37,45.82v-2.1Q2.8,41.35,2.6,36h3Q5.89,42.79.37,45.82ZM15.29,32.47v2H.57v-2H6.22V30.76H9.57v1.71Zm.2,13.34Q10,42.79,10.23,36h3q-.2,5.32,2.23,7.69Z" transform="translate(-0.37 -1.68)"/><path class="cls-1" d="M20,37.53V36.22a18.26,18.26,0,0,1-3,.92V35.36a10.56,10.56,0,0,0,6-4.8h3.55a10.56,10.56,0,0,0,6,4.8v1.78a30.67,30.67,0,0,1-3-.85v1.25Zm-1.18,7.89V38.78h12V43q.06,2.5-2.5,2.43Zm6-12.16a18.5,18.5,0,0,1-3.29,2.37H28A18.44,18.44,0,0,1,24.76,33.26ZM21.6,40.69v3h5.52q.79.07.79-.85v-2.1Z" transform="translate(-0.37 -1.68)"/><path class="cls-1" d="M43,33.52A11.63,11.63,0,0,1,41.65,37H39.94v.59h2.7v1.84h-.53a7.52,7.52,0,0,0,1.18,3.81V44A8.1,8.1,0,0,0,47,39.31h2.56A8.71,8.71,0,0,1,43,45.88V44.63q-2.76-1.31-2.89-5.19h-.13v6.31H37.38V39.44h-.2a6,6,0,0,1-3.42,5.72V43.52a6.78,6.78,0,0,0,1.38-4.08h-.92V37.6h3.16v-.85h2.43a8.93,8.93,0,0,0,.92-3.22Zm-8.81,0h2A11.81,11.81,0,0,1,37,37H34.88A16.5,16.5,0,0,0,34.16,33.52Zm.07-2.17h5.33a8.61,8.61,0,0,0,3.29-.53v2a11,11,0,0,1-3,.39H34.22ZM37,33.52h2a8.33,8.33,0,0,1,.79,2.83H37.58A13.58,13.58,0,0,0,37,33.52Zm6,2.76V34.58A5.36,5.36,0,0,0,46.06,31h2.76A7.26,7.26,0,0,1,43,36.28Zm0,4.47V39a6.73,6.73,0,0,0,3.75-4.21h2.63A8.11,8.11,0,0,1,43,40.75Z" transform="translate(-0.37 -1.68)"/><path class="cls-1" d="M40.26,18.09l-.63.35.82,1.48-.45.25-.82-1.48-2.08,1.16-.2-.36L36.68,14l.36-.2,2.28,4.11.63-.35ZM37.33,19l1.54-.86L37.14,15a.41.41,0,0,1,0,.15,1.78,1.78,0,0,1,0,.18Q37.19,16.2,37.33,19Z" transform="translate(-0.37 -1.68)"/><path class="cls-1" d="M40.55,13.5a4.36,4.36,0,0,1-.66,1.63l-.35-.63A3.27,3.27,0,0,0,40,12.15l.34-.19,3.41,6.13-.48.26Z" transform="translate(-0.37 -1.68)"/></svg>