<svg id="圖層_1" data-name="圖層 1" xmlns="http://www.w3.org/2000/svg" viewBox="0 0 50 50"><defs><style>.cls-1{fill:#fff;}</style></defs><title>logo_26</title><path class="cls-1" d="M7.36,30l1.46.31.65-.11a3.8,3.8,0,0,1,1.64.22,1.79,1.79,0,0,1,1,1,6.43,6.43,0,0,1,.48,2.92,10.61,10.61,0,0,1-.54,4,2.74,2.74,0,0,1-2.58,1.82,2.54,2.54,0,0,1-2.29-1.13,6.58,6.58,0,0,1-.68-3.32A19,19,0,0,1,7.36,30m2,2.29-.41.08c-.11.51-.19,1-.25,1.51a8.35,8.35,0,0,1,1.48.26l-.27,2.15A11.72,11.72,0,0,0,8.61,36a4.87,4.87,0,0,0,.14,1.35c.09.4.26.6.52.6a1,1,0,0,0,1-.81,9.29,9.29,0,0,0,.25-2.51c0-1.33-.08-2-.25-2.14a.81.81,0,0,0-.46-.23l-.46,0m11.2-1.8.26,2.42H19.08c.21,2.78.42,5.7.65,8.77l-2.59.26c-.23-3.21-.46-6.18-.67-8.9-1.17.08-2.3.2-3.39.35L12.85,31c1.15-.14,2.3-.26,3.45-.35-.06-.86-.13-1.69-.19-2.48l2.59-.26c.06.85.12,1.72.2,2.61l1.63,0"/><path class="cls-1" d="M17.14,36.31c0-.1-.13-.17-.3-.19l-1.34-.2-.61-1.22c-.07-.15-.17-.23-.27-.23s-.2.08-.28.23l-.6,1.22-1.34.2a.34.34,0,0,0-.31.19c0,.09,0,.21.14.33l1,1L13,38.93a.28.28,0,0,0,.45.32l1.2-.63,1.2.63a.28.28,0,0,0,.45-.32L16,37.59l1-1a.34.34,0,0,0,.13-.33"/><path class="cls-1" d="M22.44,30l1.46.31.65-.11a3.8,3.8,0,0,1,1.64.22,1.79,1.79,0,0,1,1,1,6.43,6.43,0,0,1,.48,2.92,10.61,10.61,0,0,1-.54,4,2.74,2.74,0,0,1-2.58,1.82,2.54,2.54,0,0,1-2.29-1.13,6.58,6.58,0,0,1-.68-3.32A19,19,0,0,1,22.44,30m2,2.29-.42.08c-.1.51-.18,1-.24,1.51a8.35,8.35,0,0,1,1.48.26L25,36.24A11.72,11.72,0,0,0,23.69,36a4.87,4.87,0,0,0,.14,1.35c.09.4.26.6.52.6a1,1,0,0,0,1-.81,9.29,9.29,0,0,0,.25-2.51c0-1.33-.08-2-.25-2.14a.81.81,0,0,0-.46-.23l-.46,0m11.2-1.8.26,2.42H34.16c.21,2.78.42,5.7.65,8.77l-2.59.26c-.23-3.21-.46-6.18-.67-8.9-1.17.08-2.3.2-3.39.35L27.93,31c1.15-.14,2.3-.26,3.45-.35-.06-.86-.13-1.69-.19-2.48l2.59-.26c.06.85.12,1.72.2,2.61l1.63,0"/><path class="cls-1" d="M32.08,36.31c0-.1-.13-.17-.3-.19l-1.35-.2-.6-1.22c-.08-.15-.18-.23-.28-.23s-.19.08-.27.23l-.6,1.22-1.35.2c-.17,0-.27.09-.3.19a.34.34,0,0,0,.13.33l1,1-.23,1.34a.27.27,0,0,0,.44.32l1.2-.63,1.21.63a.27.27,0,0,0,.44-.32L31,37.59l1-1a.34.34,0,0,0,.13-.33"/><path class="cls-1" d="M38.3,32.91a5.36,5.36,0,0,1,1.48,1.52L38.6,35.62a13.29,13.29,0,0,0-1.43-1.52Zm4.61-2.69.68,1.57c-1.6.28-3.38.57-5.34.89l-.73-1.57c1.91-.35,3.7-.64,5.39-.89m.77,5.55.21,1.85c-.72,0-1.43,0-2.1.05q0,.28.06.6a16.75,16.75,0,0,1,1.9.58l-.18.57c1.53-.62,3-1.15,4.34-1.6l.64,1.8-4.61,1.72-.46-1.59-.22.82L42,40.19l.09.9-1.85.2c-.08-.67-.15-1.33-.21-2-.42.52-.82,1-1.23,1.59l-1.31-1.19c.47-.63.92-1.22,1.36-1.77l-1.07.16-.19-1.85c.71-.13,1.42-.22,2.12-.28,0-.27,0-.51-.06-.75L41.53,35c0,.27,0,.54.08.81q1.06-.06,2.07-.06m-3.23-3.35a4.89,4.89,0,0,1,1.47,1.43L40.76,35a13.85,13.85,0,0,0-1.44-1.41Zm2.41-.23,1.71.58Q44,34.1,43.49,35.41l-1.7-.59c.4-1,.76-1.88,1.07-2.63M47.8,34.1l.65,1.8c-1.2.44-2.46.91-3.79,1.43l-.53-1.87c1.29-.53,2.51-1,3.67-1.36m-.18-3.44.67,1.57c-.93.43-2,.89-3.14,1.38L44.43,32c1.12-.54,2.18-1,3.19-1.38"/><path class="cls-1" d="M2.6,19.41c-.05-.61-.11-1.21-.16-1.8l2.18-.26q.45,4.8,1,10.23l-2.18.26c0-.35-.08-.7-.11-1.05a11.79,11.79,0,0,1-2.16.6l-.52-2a21.94,21.94,0,0,0,2.44-.73c-.11-1.05-.21-2.1-.31-3.14a17.37,17.37,0,0,0-2.13.23L.47,19.63C1.19,19.53,1.9,19.45,2.6,19.41ZM7,16.94l2.13.46a16.1,16.1,0,0,0-.77,2.7c.85-.25,1.66-.48,2.44-.68l.86,1.88c-1.11.36-2.31.73-3.61,1.13C8,23,8,23.5,8,24a2,2,0,0,0,.28,1.18.93.93,0,0,0,.78.34,7.57,7.57,0,0,0,2.23-.46l.46,2.08a10.77,10.77,0,0,1-2.64.45H8.66a2.93,2.93,0,0,1-2.12-.8,4.27,4.27,0,0,1-.7-2.65A23.47,23.47,0,0,1,7,16.94Z"/><path class="cls-1" d="M18.81,16.49a6.34,6.34,0,0,0,.71,1.27c1.52-.1,3.07-.15,4.67-.15l.2,1.76a66.6,66.6,0,0,0-9,.61l.83.22a20.19,20.19,0,0,1,3-.22,8.89,8.89,0,0,1,3.89.57A1.5,1.5,0,0,1,24,22.07l0,.24A1.75,1.75,0,0,1,23.25,24a7.14,7.14,0,0,1-3.06.48c.12,1.1.25,2.25.4,3.45l-2.18.26c-.16-1.23-.3-2.47-.43-3.7h-.26a7.06,7.06,0,0,1-3-.45A1.7,1.7,0,0,1,14,22.52,4.23,4.23,0,0,1,14.9,20l-1.3.2-.21-1.78c1.26-.21,2.54-.39,3.87-.52a7.5,7.5,0,0,1-.33-.7Zm-3.74,8.16,2,.65a23.25,23.25,0,0,0-1.22,2.59l-2-.66C14.3,26.25,14.71,25.38,15.07,24.65Zm4.35-3a8.48,8.48,0,0,0-3.12.61.45.45,0,0,0,.26.43,4.13,4.13,0,0,0,1.62.23H19a11.24,11.24,0,0,0,2.35-.17.54.54,0,0,0,.43-.54c0-.24-.19-.39-.5-.45A10.78,10.78,0,0,0,19.42,21.6Zm3.09,3.14a7,7,0,0,1,2.13,1.73l-1.36,1.37a20.67,20.67,0,0,0-2.09-1.72Z"/><path class="cls-1" d="M49.51,15.73c-.18-.55-.78-1-1.76-1.1L40,13.5l-3.47-7c-.44-.89-1-1.33-1.6-1.33s-1.15.44-1.59,1.33l-3.47,7-7.77,1.13c-1,.14-1.58.55-1.76,1.1a1.21,1.21,0,0,0,0,.6h1.54c.74,0,1.32,0,1.72,0v-.51h1.07v1h-.2A1.41,1.41,0,0,1,25.2,18v3.36a1.39,1.39,0,0,1,0,.3l1.55,1.51-1.07,6.24a1.31,1.31,0,0,1,.38.12,1.53,1.53,0,0,1,.78.62h1v0c.75-.09,1.5-.16,2.26-.23a.14.14,0,0,1,0-.06l-.12-1.35a1.11,1.11,0,0,1,1-1.19l1.15-.1L33.61,27v0L34,27a1.11,1.11,0,0,1,1.19,1l.11,1.3,1.91,1c2.32-.38,4.66-.64,7-1.05l-1-6.1,5.63-5.48A2,2,0,0,0,49.51,15.73ZM41,18.48l-2.47,2.4.59,3.4a.85.85,0,0,1-.23.88A.86.86,0,0,1,38,25.1l-3.05-1.6-3,1.6a.71.71,0,0,1-1.13-.82l.59-3.4-2.47-2.4c-.31-.31-.42-.61-.34-.85s.34-.42.77-.48l3.41-.5,1.53-3.09c.19-.39.44-.58.69-.58s.51.19.7.58l1.53,3.09,3.41.5c.43.06.69.24.77.48S41.29,18.17,41,18.48Z"/><rect class="cls-1" x="20.28" y="15.42" width="5" height="1.62" rx="0.5" ry="0.5"/></svg>