<svg id="圖層_1" data-name="圖層 1" xmlns="http://www.w3.org/2000/svg" viewBox="0 0 50 50"><defs><style>.cls-1{fill:#fff;}</style></defs><title>logo_118</title><path class="cls-1" d="M6,29.81h4.65v.88H9.31v1.07h1.37v.89H9.31v8h-2v-8H5.9v-.89H7.27V30.69H6Zm1.09,3.58L6.9,40.63h-1L6,33.39Zm3.5,0,.12,7.24h-1l-.13-7.24Zm2.2-2.93-.37,6.77H10.9l.39-6.77Zm-1.33,9.18h2.75a.62.62,0,0,0,.6-.53l.13-.64H13V29.4h2.1v8.17l.32-1.48h1.71l-.75,3.48a1.26,1.26,0,0,1-1.21,1H11.42Zm5.4-9.18.31,4.94h-1.5l-.31-4.94Z"/><path class="cls-1" d="M17.84,29.81h4.65v.88H21.18v1.07h1.37v.89H21.18v8h-2v-8h-1.4v-.89h1.37V30.69H17.84Zm1.06,3.58-.13,7.24h-1l.13-7.24Zm3.5,0,.12,7.24h-1l-.13-7.24Zm2.2-2.93-.37,6.77h-1.5l.39-6.77Zm-1.3,9.18h2.75a.62.62,0,0,0,.61-.53l.13-.64H24.9V29.4H27v8.17l.32-1.48H29l-.77,3.48a1.26,1.26,0,0,1-1.21,1H23.3Zm5.4-9.18L29,35.4H27.5l-.31-4.94Z"/><path class="cls-1" d="M29.63,29.57h6.72v.9H29.63Zm0,5.24h2.2v-.55h2.32v.55h2.21v.91H34.15v5H31.83v-5h-2.2Zm0,5.89.27-4.54h1.79l-.26,4.53Zm.24-6.7-.17-3.13h1.86L31.72,34Zm2.24,0-.21-3.13h1.84L33.93,34Zm2.15,0,.19-3.12H36.3L36.13,34Zm.3,6.7-.25-4.53h1.8l.23,4.53Zm3.82-11.19H40.9l-1.34,2.78a1.11,1.11,0,0,1-1,.64h-2V32H37a.34.34,0,0,0,.31-.19Zm0,3.8H40.9l-1.36,2.76a1.11,1.11,0,0,1-1,.63h-2v-.9h.4a.33.33,0,0,0,.31-.19Zm0,4H40.9L39.56,40.1a1.11,1.11,0,0,1-1,.63h-2v-.9H37a.33.33,0,0,0,.31-.19Z"/><polygon class="cls-1" points="44.66 27.98 47.03 26.99 46.38 29.47 48.05 31.42 45.48 31.56 44.15 33.75 43.23 31.36 40.73 30.76 42.72 29.14 42.52 26.58 44.66 27.98"/><polygon class="cls-1" points="42.99 21.57 44.94 21.75 43.62 23.18 44.05 25.08 42.27 24.26 40.6 25.26 40.84 23.32 39.37 22.04 41.27 21.66 42.05 19.87 42.99 21.57"/><polygon class="cls-1" points="37.98 17.23 39.15 16.68 38.88 17.94 39.76 18.88 38.47 19.01 37.84 20.14 37.33 18.96 36.06 18.71 37.02 17.86 36.87 16.58 37.98 17.23"/><path class="cls-1" d="M6.42,18.65v-.51H8.25v.51h4.4V20H10.82v-.53h-7V20H2V18.65ZM4.27,21.38v-.3h-2v-.91h2v-.28H6.1v.28H8.58v-.28h1.83v.28h2v.91h-2v.3h2v.89h-2v.3h2.24v.89H10.83a3.32,3.32,0,0,0,1.81.34V25a4.82,4.82,0,0,1-.76,0v1.21h-2V24.72h-5v1.47H2.78V25A4.82,4.82,0,0,1,2,25V23.8a4.2,4.2,0,0,0,1-.06,2.58,2.58,0,0,0,.79-.28H2v-.89H4.27v-.29h-2v-.89ZM2,26.57a11.43,11.43,0,0,0,3.24-.35c.66-.22,1-.58,1-1.08v-.22H8.38v.22c0,.5.33.86,1,1.08a24.29,24.29,0,0,0,4.59.35l3.48,1.35H11a14.17,14.17,0,0,1-1.46-.16,8.43,8.43,0,0,1-1.25-.29,3.61,3.61,0,0,1-1-.45,3.89,3.89,0,0,1-1,.45A9.05,9.05,0,0,1,5,27.76c-.49.08-1,.13-1.46.16H2ZM5.8,23.46l-.14.18-.15.16H9.16L9,23.64l-.1-.18Zm.3-2.07H8.58v-.3H6.1Zm0,1.18H8.58v-.29H6.1Z"/><polygon class="cls-1" points="19.89 24.93 19.89 23.93 14.78 23.93 14.78 22.68 16.3 20.35 13.48 20.35 13.48 19.15 17.09 19.15 18.23 17.78 21 17.3 20.07 19.15 27.57 19.15 31.52 20.35 19.3 20.35 17.79 22.68 19.89 22.68 19.89 21.25 22.55 21.25 22.55 22.68 27.07 22.68 30.23 23.93 22.55 23.93 22.55 24.93 27.57 24.93 35.34 26.18 22.55 26.18 22.55 27.93 19.89 27.93 19.89 26.18 16.05 26.18 13.48 24.93 19.89 24.93"/><path class="cls-1" d="M27.38,6.35a.64.64,0,0,0-1-.76.27.27,0,0,0-.06.1L17.55,18.82a4.55,4.55,0,0,0,0,2.2l.12.1c.3.18,2.51-2.4,2.69-2.71Z"/><path class="cls-1" d="M33.83,19.57l4-6.75a.7.7,0,0,0-.06-.91c-2.5-2.93-7-2-9.48-5-.19-.24-.43-.27-.58,0q-2,3.39-3.95,6.75a.78.78,0,0,0,.06.91c2.49,2.93,7,2,9.47,5,.19.24.43.27.59,0m3-7.19-1.09,1.86A7.16,7.16,0,0,0,33.81,13l1.09-1.9a7.16,7.16,0,0,1,1.93,1.29m-11.07-.17L27,10.05a6.63,6.63,0,0,0,2,1.34l1.13-1.82a21.6,21.6,0,0,0,2.4.76l-1.09,1.86a21.6,21.6,0,0,1-2.4-.76L27.8,13.51a6.63,6.63,0,0,1-2-1.34m.94,3.23,1.11-1.89a19.35,19.35,0,0,0,2.38.75l-1.11,1.89a19.35,19.35,0,0,1-2.38-.75m3.5-1.14,1.24-2.12a22.91,22.91,0,0,1,2.39.77L32.63,15a22.91,22.91,0,0,0-2.39-.77m1.3,2.67L32.63,15a6.93,6.93,0,0,1,1.92,1.28l-1.1,1.89a7,7,0,0,0-1.91-1.28"/></svg>