<svg id="圖層_1" data-name="圖層 1" xmlns="http://www.w3.org/2000/svg" viewBox="0 0 49.56 30.61"><defs><style>.cls-1{fill:#fff;}</style></defs><title></title><path class="cls-1" d="M9.79,22.73a181.79,181.79,0,0,0,29.36-5.4q3.15-.85,6.27-1.86c1.38-.45,3-.85,4.38-1.33-7-1-14.22-1.68-21.27-.9a137.39,137.39,0,0,0-14.7,2.87c-.21,0-4.24,1.13-4.24,1.16A23,23,0,0,1,7.09,23C7.82,22.94,9.4,22.77,9.79,22.73Z" transform="translate(-0.44 -7.56)"/><path class="cls-1" d="M18.27,14.72l-.33-1.22s5.6-2.6,6.14-2.69c1,.4,3.62,1.62,4.35,2.05A75.66,75.66,0,0,0,18.27,14.72Z" transform="translate(-0.44 -7.56)"/><path class="cls-1" d="M15.29,15.37s2.45-5.47,5.6-6.91l-2-.91s-4.67,2.15-8.16,9C13.24,15.81,13.48,15.77,15.29,15.37Z" transform="translate(-0.44 -7.56)"/><path class="cls-1" d="M24,25.3" transform="translate(-0.44 -7.56)"/><path class="cls-1" d="M2.75,26.31h.32l.3-1.71H7.51l.09-.54h3.27l-.09.54h3.57l0-.47h2.93l.08.94h.39l.12-.67h7.89l-.14.79h.09l.15-.86h5.5l.77-.15a36.35,36.35,0,0,0,10.83-4q.88-.5,1.72-1.07c1.09-.73,2.06-1.59,3.07-2.41A21.64,21.64,0,0,0,50,14.29a98,98,0,0,1-9.67,3.26A156.38,156.38,0,0,1,11.14,23c-2.57.24-8.38.62-10.67.79,0,.08,0,.15,0,.18a4.5,4.5,0,0,0,.28,1.86c.07.19.47,1.39.74,1.36h0l1.11-.08Z" transform="translate(-0.44 -7.56)"/><path class="cls-1" d="M4.61,28H6.84l.45,1.06H9.65L10.48,28h2.23l-.83,1.06h1.66l-.18,1.05h-4l-.13.75h4.31l-.18,1H9.1L8.92,33H6.7l.18-1.05H2.57l.18-1H7.06l.13-.75h-4l.18-1.05H5.06Zm3.55-3.57h2.21l-.09.55h4.1l-.18,1.05H10.1l-.12.7h4.43l-.18,1.05H3.16l.18-1.05H7.77l.12-.7H3.78L4,25H8.07Z" transform="translate(-0.44 -7.56)"/><path class="cls-1" d="M13.46,32.87l.18-1.06h.6L15,27.5h-.6l.19-1.09H17.1L16,32.87Zm1.63-6.66L15,24.54h1.89l.08,1h.33l-.28.71Zm1.59,6.66-.47-1.06h8.41l-.85,1.06ZM24,28.69l.53,2.47H22.7l-.19-1-.51,1H17.08l.16-1L19,27.9H17.3l.18-1h7.83l-.18,1H21.19l-1.77,2.3h3.09l-.3-1.51Zm1.15-3.87L25,25.87H18.16l.18-1.06Z" transform="translate(-0.44 -7.56)"/><path class="cls-1" d="M26.3,24.73h7.09L33.18,26l-5,5.74h7.12l-.83,1.17H25.56l.2-1.17L30.87,26H26.09Zm6.55,6.41-1-2.87H34l.76,2.12h.53l-.4.75Zm3.68-6L34,28H31.93l2.52-2.88Z" transform="translate(-0.44 -7.56)"/><path class="cls-1" d="M41.44,24.89,40,33h-1.8L38,32.07h.7l.47-2.73H38L37.33,33H35.67l.21-1.2h.18l.42-2.45h-.25l.16-.93h.24l.6-3.52h.41l.25-.38h1.47l-.24.38Zm-3.61,6.67L37.91,30h.94l-.09,1.54Zm2-5.84H38.57l-.46,2.69h1.26ZM38.46,27.9l.09-1.55h.94L39.4,27.9ZM46.25,33H42.8l-.3-1-.17,1h-2l.17-1h.44l.48-2.79H41l.21-1.2h.44L42,25.61h-.44l.18-1.06h2l-.57,3.33-.6.69.34.82L42.5,32h4.34Zm.73-2.4-.16,1H43l.16-1h1.08l.36-2.08H43.36l.16-.94h1.27l.32-1.89h-1l.16-.94h3.68l-.54.94h-.64l-.32,1.89h1.17l-.16.94H46.26l-.36,2.08Z" transform="translate(-0.44 -7.56)"/><path class="cls-1" d="M10.2,33.72l-.55,3.1h.69l-.25.43H8.48l.62-3.53Z" transform="translate(-0.44 -7.56)"/><path class="cls-1" d="M11.94,34.9l-.34,1.93h.78l-.27.43H10.53l.42-2.35Zm1.81,0-.34,1.93h.31l-.24.42H12.3l.42-2.35Z" transform="translate(-0.44 -7.56)"/><path class="cls-1" d="M16.71,35.33H15.19l-.26,1.49h1.52l-.21.43H13.91l.41-2.35h2.46Z" transform="translate(-0.44 -7.56)"/><path class="cls-1" d="M19.13,34.88h1l-1.36,1.07.84.94h.27l-.24.37h-.8l-1-1.11-.2,1.11H16.64l.62-3.53h1.08l-.35,2h0Z" transform="translate(-0.44 -7.56)"/><path class="cls-1" d="M21.53,34.9l-.06.36.4,1,.74-1,.06-.36h1l-.08.48-2.17,2.76h-1l-.12-.41h.33l.6-.73-.74-1.63.08-.48Z" transform="translate(-0.44 -7.56)"/><path class="cls-1" d="M27.38,36.82h.31l-.25.43H26.2l.18-1h-.66l-.11.61h.66l-.27.43H24.6l.26-1.47h1.59l.08-.46H25l0-.43h2.74Z" transform="translate(-0.44 -7.56)"/><path class="cls-1" d="M29.38,34.9,29,37.25H27.88l.42-2.35Zm0-.29H28.35l.12-.67h1.08Z" transform="translate(-0.44 -7.56)"/><path class="cls-1" d="M29.24,37.25l.42-2.35h1.62l.18.43h-.78l-.34,1.93Z" transform="translate(-0.44 -7.56)"/><path class="cls-1" d="M32.65,35.82H34l-.25,1.44H31.63l-.16-.48h1.46l.08-.45H31.66l.25-1.42h2.28l-.08.48H32.73Z" transform="translate(-0.44 -7.56)"/><path class="cls-1" d="M35.56,34.93h1.87L37,37.25H36l.33-1.9h-.87l-.33,1.9H34l.62-3.53h1.12Z" transform="translate(-0.44 -7.56)"/><path class="cls-1" d="M38.79,34.9l-.42,2.35H37.29l.42-2.35Zm0-.29H37.76l.12-.67H39Z" transform="translate(-0.44 -7.56)"/><path class="cls-1" d="M39.57,38.16H38.49l.58-3.27H42l-.4,2.29H40l-.16-.41Zm1.09-1.38.26-1.48h-.84l-.26,1.48Z" transform="translate(-0.44 -7.56)"/></svg>