<svg id="圖層_1" data-name="圖層 1" xmlns="http://www.w3.org/2000/svg" viewBox="0 0 49.79 37.22"><defs><style>.cls-1{fill:#fff;}</style></defs><title>幸运28反白50*50</title><path class="cls-1" d="M38.71,15.39a11.2,11.2,0,1,1-11.2,11.17A11.21,11.21,0,0,1,38.71,15.39Zm2.83,15.86a7.05,7.05,0,1,0-7.05-7.1A7,7,0,0,0,41.53,31.25Z" transform="translate(-0.11 -7)"/><path class="cls-1" d="M29,35.88l0,0" transform="translate(-0.11 -7)"/><path class="cls-1" d="M3.58,33.7h5l.11-.65h3.84l-.11.65h4.46l0-.57h3.43l.1,1.14H21l.14-.81h8a11.17,11.17,0,0,1,3.27-16.6A16.91,16.91,0,1,0,3.52,34.08ZM13.81,9.33A10.16,10.16,0,1,1,3.65,19.48,10.16,10.16,0,0,1,13.81,9.33Z" transform="translate(-0.11 -7)"/><path class="cls-1" d="M33.89,22.7a7.11,7.11,0,0,0-.17,1.45,6.8,6.8,0,0,0,.13,1.41q.08-.82.08-1.65C33.93,23.5,33.91,23.1,33.89,22.7Z" transform="translate(-0.11 -7)"/><path class="cls-1" d="M22.93,19.43a9.28,9.28,0,1,1-9.25-9.29A9.29,9.29,0,0,1,22.93,19.43ZM4.81,19.31A8.71,8.71,0,0,0,13.52,28a9,9,0,0,0,8.73-8.67,8.72,8.72,0,1,0-17.45-.06Z" transform="translate(-0.11 -7)"/><path class="cls-1" d="M48.27,24a6.56,6.56,0,1,1-6.53-6.56A6.57,6.57,0,0,1,48.27,24Zm-12.56-.18a6.15,6.15,0,1,0,6.12-6.16A6.11,6.11,0,0,0,35.71,23.84Z" transform="translate(-0.11 -7)"/><path class="cls-1" d="M5.33,37.87H8l.53,1.22h2.78l1-1.22h2.63l-1,1.22h2l-.21,1.2H11l-.15.86h5.08l-.21,1.19H10.62l-.21,1.2H7.8L8,42.35H2.93l.21-1.19H8.22l.15-.86H3.72l.21-1.2H5.87Zm4.19-4.08h2.61l-.11.63h4.83l-.21,1.21H11.81l-.14.8h5.22l-.21,1.2H3.62l.21-1.2H9.06l.14-.8H4.36l.21-1.21H9.41Z" transform="translate(-0.11 -7)"/><path class="cls-1" d="M15.76,43.41,16,42.19h.71l.87-4.93h-.71L17.06,36h3l-1.3,7.39Zm1.92-7.63-.15-1.91h2.23l.09,1.1h.39l-.33.81Zm1.88,7.63L19,42.19h9.91l-1,1.22Zm8.62-4.79.63,2.83H26.65l-.22-1.1-.6,1.1H20l.19-1.1,2.1-2.63h-2l.21-1.19h9.23l-.21,1.19H24.87l-2.09,2.63h3.64l-.35-1.73Zm1.36-4.44-.21,1.22h-8l.21-1.22Z" transform="translate(-0.11 -7)"/><path class="cls-1" d="M31.4,39.09l-.64,3.61h.8l-.29.5H29.4l.72-4.11Z" transform="translate(-0.11 -7)"/><path class="cls-1" d="M33.43,40.46,33,42.7h.9l-.31.5H31.79l.48-2.74Zm2.1,0-.4,2.24h.36l-.28.49H33.85l.48-2.74Z" transform="translate(-0.11 -7)"/><path class="cls-1" d="M39,41H37.2l-.31,1.74h1.77l-.24.5h-2.7l.48-2.73h2.86Z" transform="translate(-0.11 -7)"/><path class="cls-1" d="M41.78,40.43H43l-1.58,1.24,1,1.1h.32l-.28.42h-.93l-1.15-1.29-.23,1.29H38.88l.72-4.11h1.25l-.41,2.33h0Z" transform="translate(-0.11 -7)"/><path class="cls-1" d="M44.56,40.46l-.07.41L45,42l.86-1.12.07-.41h1.19L47,41l-2.52,3.21H43.25l-.14-.47h.38l.7-.84L43.33,41l.1-.56Z" transform="translate(-0.11 -7)"/><path class="cls-1" d="M6.79,22.14l1-2.14q.35-.12,1.79-.53,5.51-1.45,6.05-2.73a1.49,1.49,0,0,0-.65-2q-1.25-.45-2.08,1l-2.32-1.11q1.42-3,5.13-1.42Q19.1,15,17.95,17.9q-.88,1.84-5.72,3.11a14.22,14.22,0,0,0-2.38.69L15,24.17l-.74,1.55Z" transform="translate(-0.11 -7)"/><path class="cls-1" d="M42,24l0,0a1.47,1.47,0,0,1-2-.33q-1-1.31.62-2.9,1.81-1.38,3-.16a1.58,1.58,0,0,1,0,2,1.78,1.78,0,0,1,2.21.4q1.08,1.51-.61,3.09-1.87,1.48-3.15.1A1.75,1.75,0,0,1,42,24Zm-.91-1.19a.92.92,0,0,0,1.39,0,.89.89,0,0,0,.11-1.3,1,1,0,0,0-1.36,0A.87.87,0,0,0,41.05,22.8Zm2,2.41a1,1,0,0,0,1.46.17,1,1,0,0,0,0-1.44,1,1,0,0,0-1.46-.17A1,1,0,0,0,43.09,25.21Z" transform="translate(-0.11 -7)"/></svg>