<svg id="圖層_1" data-name="圖層 1" xmlns="http://www.w3.org/2000/svg" viewBox="0 0 50 50"><defs><style>.cls-1{fill:#fff;}</style></defs><title>logo_32</title><path class="cls-1" d="M33.52,32.43h7.1A.7.7,0,0,0,41.3,32h1l-1.06-6.21,6.35-6.19a2.23,2.23,0,0,0,.87-2.18c-.2-.62-.88-1.08-2-1.24l-8.78-1.28-3.92-8c-.5-1-1.15-1.5-1.8-1.5s-1.3.5-1.8,1.5l-3.92,8-8.78,1.28c-1.1.16-1.78.62-2,1.24a1.63,1.63,0,0,0,.17,1.27,3,3,0,0,1,.7-.09H21.1c1.38,0,2.07.78,2.07,2.32V25a1.54,1.54,0,0,1-.31.92c-.06.08-.13.14-.19.21l-.07.44H24v2H22.25l-.35,2.06h6.39a.93.93,0,0,1,.79.41l1.16,2.23.06.11L32,32.49l1.53.81Zm-5-4.44a1,1,0,0,1-1,.07,1,1,0,0,1-.25-1l.66-3.84-2.79-2.71a1,1,0,0,1-.38-1c.08-.27.38-.47.87-.54l3.85-.56L31.2,15c.22-.44.5-.66.79-.66s.57.22.79.66l1.72,3.49,3.85.56c.49.07.79.27.87.54a1,1,0,0,1-.38,1l-2.79,2.71.66,3.84a1,1,0,0,1-.25,1,1,1,0,0,1-1-.07L32,26.18Z"/><path class="cls-1" d="M11.07,29.6H8.9A1.43,1.43,0,0,1,8,29.39a1.69,1.69,0,0,1-.45-1.06H3.63a2.09,2.09,0,0,1-1.58-.61A2.33,2.33,0,0,1,1.47,26v-4.2c0-1.48.66-2.22,2-2.22H8.19c1.38,0,2.07.77,2.07,2.32V26a1.57,1.57,0,0,1-.31.93,2,2,0,0,1-.73.65h1.85ZM7.86,26.33v-4.7h-4v4.7Z"/><path class="cls-1" d="M21.53,29.6H19.35a1.41,1.41,0,0,1-.86-.21A1.75,1.75,0,0,1,18,28.33h-4a2.07,2.07,0,0,1-1.57-.61A2.33,2.33,0,0,1,11.92,26v-4.2q0-2.22,2-2.22h4.71c1.39,0,2.08.77,2.08,2.32V26a1.59,1.59,0,0,1-.32.93,1.91,1.91,0,0,1-.72.65h1.85Zm-3.21-3.27v-4.7h-4v4.7Z"/><path class="cls-1" d="M4.21,37.58H16v5.3q0,1.5-1.77,1.5H9.72V42.67h3.81c.3,0,.44-.13.44-.4v-3H8.77L7.05,43.72a.83.83,0,0,1-.81.66H4.15V42.67h1q.13,0,.21-.18l1.21-3.2H4.21Zm1.31-3.36H7.57l-.88,2.07a1,1,0,0,1-.94.68H4.26V35.26H5q.18,0,.27-.24ZM5.37,31.9h8.28a1,1,0,0,1,.79.41l1.16,2.23c.15.34.34.51.58.51h.34v2h-1q-.48,0-1-.72l-1.57-2.43a.73.73,0,0,0-.51-.21H5.37Z"/><path class="cls-1" d="M18.34,37.58H30.1v5.3q0,1.5-1.77,1.5H23.85V42.67h3.82c.29,0,.44-.13.44-.4v-3h-5.2l-1.73,4.43a.83.83,0,0,1-.8.66h-2.1V42.67h1q.14,0,.21-.18l1.22-3.2H18.34Zm1.31-3.36H21.7l-.87,2.07a1,1,0,0,1-.95.68H18.4V35.26h.7q.2,0,.27-.24ZM19.5,31.9h8.28a1,1,0,0,1,.79.41l1.16,2.23c.15.34.35.51.58.51h.34v2h-1c-.33,0-.65-.24-1-.72l-1.57-2.43a.72.72,0,0,0-.5-.21H19.5Z"/><path class="cls-1" d="M33.27,40.72h1.52l-.55,2.86q-.2,1-1,1h-.86V43.19h.34c.09,0,.17-.14.23-.42Zm5.08-7.07h1.7A2.18,2.18,0,0,1,39.59,35a1.43,1.43,0,0,1-1.06.37H32.41V34h5.41A.55.55,0,0,0,38.35,33.65Zm.85,5.13v1.33H36.68v4.41H35.12V40.11H32.51V38.78h2.61V38h1.56v.75Zm-6.64-2.94H34v.57q0,.18.24.18h.23v1.19h-1c-.57,0-.85-.23-.85-.7Zm2.31,0h1.44v.57c0,.12.07.18.23.18h.29v1.19H35.74c-.58,0-.87-.23-.87-.7ZM37,40.72h1.52l.34,2.09c0,.25.15.38.33.38h.09v1.38h-.86a.84.84,0,0,1-.85-.76Zm.72-4.88h1.42v1.24c0,.47-.29.7-.85.7H37.21V36.59h.32c.13,0,.2-.06.2-.18Zm5.4-2.09-.53,2.82a.91.91,0,0,1-1,.79H39.77V35.94h.85a.4.4,0,0,0,.41-.32l.44-1.87Zm.15,3.89-.51,2.6a.83.83,0,0,1-.91.72H39.77V39.54h1.09a.36.36,0,0,0,.37-.26l.38-1.64Zm.09,3.65-.48,2.56a.84.84,0,0,1-.9.72H39.77V43.15H41a.35.35,0,0,0,.36-.27l.36-1.59Z"/></svg>