<svg xmlns="http://www.w3.org/2000/svg" viewBox="0 0 23 23"><defs><style>.cls-1{fill:#52acd3;}</style></defs><title>account</title><g id="圖層_2" data-name="圖層 2"><g id="圖層_1-2" data-name="圖層 1"><path class="cls-1" d="M23,11.5A11.5,11.5,0,1,0,3.73,20h0l.37.32.08.05c.2.17.4.32.61.47L5,21l.68.44.16.09.78.41.06,0a11.12,11.12,0,0,0,2.78.88l.08,0c.3.05.61.09.92.12h.11c.31,0,.62,0,.94,0s.62,0,.93,0h.12c.3,0,.61-.07.91-.12h.08A12.14,12.14,0,0,0,16.28,22l.09-.05c.26-.12.51-.25.76-.39l.18-.1c.23-.14.45-.27.67-.42l.22-.17a5.47,5.47,0,0,0,.54-.41l.12-.09.38-.32h0A11.43,11.43,0,0,0,23,11.5ZM.84,11.5a10.66,10.66,0,1,1,17.73,8,2.77,2.77,0,0,0-.37-.22l-3.54-1.77a.93.93,0,0,1-.52-.84V15.41l.26-.34a8.21,8.21,0,0,0,1.09-2.15,1.52,1.52,0,0,0,.88-1.37V10.06a1.58,1.58,0,0,0-.37-1V7.12a3.42,3.42,0,0,0-.79-2.45A4.71,4.71,0,0,0,11.5,3.34,4.71,4.71,0,0,0,7.79,4.67,3.42,3.42,0,0,0,7,7.12v2a1.58,1.58,0,0,0-.37,1v1.49a1.53,1.53,0,0,0,.56,1.18,7.87,7.87,0,0,0,1.3,2.67v1.21a1,1,0,0,1-.49.82l-3.31,1.8-.31.2A10.64,10.64,0,0,1,.84,11.5Zm16.92,8.63-.45.31-.21.13-.6.35-.14.07a9.79,9.79,0,0,1-1.46.61l-.05,0a7.32,7.32,0,0,1-.8.23h0c-.27.07-.54.12-.82.17,0,0,0,0,0,0-.26,0-.53.07-.79.09h-.14q-.39,0-.78,0c-.27,0-.53,0-.79,0h-.14c-.26,0-.53-.06-.79-.1h0a11.11,11.11,0,0,1-1.63-.41l0,0a6.24,6.24,0,0,1-.78-.3h0c-.25-.1-.48-.22-.72-.34l-.09-.05q-.32-.16-.63-.36l-.18-.12c-.19-.12-.38-.25-.56-.39l-.05,0,0,0L8.4,18.16a1.76,1.76,0,0,0,.92-1.55V15.1L9.23,15A6.9,6.9,0,0,1,8,12.39l0-.17-.14-.09a.7.7,0,0,1-.32-.58V10.06a.69.69,0,0,1,.23-.51l.14-.12V7a2.5,2.5,0,0,1,.58-1.82,3.94,3.94,0,0,1,3.08-1,4,4,0,0,1,3.07,1A2.55,2.55,0,0,1,15.16,7V9.43l.14.12a.69.69,0,0,1,.23.51v1.49a.7.7,0,0,1-.49.66l-.21.06-.07.21a8.07,8.07,0,0,1-1,2.1c-.11.16-.22.29-.31.4l-.1.12v1.54a1.77,1.77,0,0,0,1,1.59L17.82,20l.07,0-.13.1Z"/></g></g></svg>