<svg xmlns="http://www.w3.org/2000/svg" viewBox="0 0 720.78 239.44"><defs><style>.cls-1,.cls-2,.cls-4{fill:#e0c98b;}.cls-1{opacity:0.45;}.cls-2,.cls-3{opacity:0.8;}.cls-3{fill:#a0874f;}</style></defs><title>404_light</title><g id="圖層_2" data-name="圖層 2"><g id="stars"><path class="cls-1" d="M140.48,4a3.8,3.8,0,1,1-7.58,0,3.8,3.8,0,1,1,7.58,0Z"/><path class="cls-1" d="M158.41,92.58a3.79,3.79,0,1,1-3.78-4A3.9,3.9,0,0,1,158.41,92.58Z"/><path class="cls-1" d="M30.52,98.51a3.79,3.79,0,1,1-3.79-4A3.91,3.91,0,0,1,30.52,98.51Z"/><path class="cls-1" d="M313.39,36.6a3.8,3.8,0,1,1-3.79-4A3.91,3.91,0,0,1,313.39,36.6Z"/><path class="cls-1" d="M254.62,40.61a3.8,3.8,0,1,1-3.79-4A3.91,3.91,0,0,1,254.62,40.61Z"/><path class="cls-1" d="M628.45,65.23a3.8,3.8,0,1,1-3.79-4A3.9,3.9,0,0,1,628.45,65.23Z"/><path class="cls-1" d="M720.78,102.52a3.79,3.79,0,1,1-3.79-4A3.9,3.9,0,0,1,720.78,102.52Z"/><ellipse class="cls-1" cx="685.06" cy="12.03" rx="3.79" ry="4.01"/><path class="cls-1" d="M494.42,90.87a3.79,3.79,0,1,1-3.79-4A3.91,3.91,0,0,1,494.42,90.87Z"/><path class="cls-2" d="M587.2,102.52a5.68,5.68,0,1,1-5.68-6A5.85,5.85,0,0,1,587.2,102.52Z"/><path class="cls-2" d="M256.5,126.09a5.68,5.68,0,1,1-5.67-6A5.85,5.85,0,0,1,256.5,126.09Z"/><path class="cls-3" d="M575,42.6a5.68,5.68,0,1,1-5.67-6A5.85,5.85,0,0,1,575,42.6Z"/><path class="cls-2" d="M412.81,50.51a5.68,5.68,0,1,1-5.67-6A5.85,5.85,0,0,1,412.81,50.51Z"/><path class="cls-3" d="M74.3,88.57a5.68,5.68,0,1,1-5.67-6A5.84,5.84,0,0,1,74.3,88.57Z"/><path class="cls-4" d="M676.66,198.27c-.49-13.69-5.23-27.7-20.28-27.46,12.25-.24,19.87-11.38,20.28-27.29-.34,13.75,6.27,27.37,20.28,27.29C682.57,170.89,676.1,184.29,676.66,198.27Z"/><path class="cls-4" d="M674.93,198.34v-.23c-.38-9.69-3.28-25.58-18.18-25.58h-.34l-.06-3.45c10.89-.21,18.19-10.27,18.58-25.61l3.45.09h0c-.21,8.44,2.34,16.2,6.81,20.75a15.67,15.67,0,0,0,11.61,4.77.55.55,0,0,1,.13,0l0,3.45h0a16.34,16.34,0,0,0-12.17,5c-4.37,4.57-6.69,12-6.41,20.4a1.93,1.93,0,0,1,0,.24Zm-10.26-27.73c5.57,2.38,9.6,7.48,11.81,14.92a25.73,25.73,0,0,1,5.8-10.34,19.47,19.47,0,0,1,6.25-4.39,19.06,19.06,0,0,1-5.8-4.07,26.56,26.56,0,0,1-6.25-11C674.24,162.78,670.13,168,664.67,170.61Z"/><path class="cls-4" d="M20.31,239.37c-.48-13.68-5.23-27.7-20.28-27.46,12.25-.24,19.87-11.38,20.28-27.29C20,198.37,26.58,212,40.59,211.91,26.22,212,19.76,225.4,20.31,239.37Z"/><path class="cls-4" d="M18.59,239.44a1.69,1.69,0,0,1,0-.23c-.38-9.69-3.27-25.58-18.18-25.58H.06L0,210.19c10.89-.22,18.19-10.27,18.59-25.61l3.44.08h0c-.2,8.44,2.34,16.19,6.81,20.75a15.72,15.72,0,0,0,11.61,4.77h.13l0,3.45h0a16.3,16.3,0,0,0-12.17,5c-4.36,4.57-6.69,12-6.4,20.4v.23ZM8.33,211.72c5.56,2.38,9.59,7.47,11.8,14.91a25.77,25.77,0,0,1,5.81-10.33,19,19,0,0,1,6.24-4.39,19.24,19.24,0,0,1-5.8-4.07,26.66,26.66,0,0,1-6.25-11.06C17.89,203.89,13.78,209.09,8.33,211.72Z"/></g></g></svg>