<?xml version="1.0" encoding="utf-8"?>
<!-- Generator: Adobe Illustrator 21.1.0, SVG Export Plug-In . SVG Version: 6.00 Build 0)  -->
<svg version="1.1" id="圖層_1" xmlns="http://www.w3.org/2000/svg" xmlns:xlink="http://www.w3.org/1999/xlink" x="0px" y="0px"
	 width="201px" height="201px" viewBox="0 0 201 201" style="enable-background:new 0 0 201 201;" xml:space="preserve">
<style type="text/css">
	.st0{opacity:0.2;fill:#FFFFFF;}
	.st1{fill:#FEFEFE;}
</style>
<polygon class="st0" points="200.9,0.4 0.3,0.4 200.9,201.1 "/>
<g>
	<path class="st1" d="M100.6,38.3c34.3,0,62.3,27.9,62.3,62.3s-27.9,62.3-62.3,62.3s-62.3-27.9-62.3-62.3S66.3,38.3,100.6,38.3
		 M100.6,33.9C63.8,33.9,34,63.7,34,100.5s29.8,66.6,66.6,66.6s66.6-29.8,66.6-66.6S137.4,33.9,100.6,33.9L100.6,33.9z"/>
</g>
<g>
	<rect x="75.6" y="93.4" class="st1" width="50.1" height="14.2"/>
</g>
<g>
	<rect x="93.5" y="75.5" class="st1" width="14.2" height="50.1"/>
</g>
</svg>
