<?xml version="1.0" encoding="utf-8"?>
<!-- Generator: Adobe Illustrator 21.1.0, SVG Export Plug-In . SVG Version: 6.00 Build 0)  -->
<svg version="1.1" id="圖層_1" xmlns="http://www.w3.org/2000/svg" xmlns:xlink="http://www.w3.org/1999/xlink" x="0px" y="0px"
	 width="32.9px" height="32.9px" viewBox="0 0 32.9 32.9" style="enable-background:new 0 0 32.9 32.9;" xml:space="preserve">
<style type="text/css">
	.st0{fill:#CBCBCB;}
</style>
<title>資產 1</title>
<g id="圖層_2">
	<g id="pop">
		<path class="st0" d="M32.4,29.9L18.9,16.4L32.4,3c0.7-0.6,0.8-1.8,0.1-2.5c-0.6-0.7-1.8-0.8-2.5-0.1c0,0-0.1,0.1-0.1,0.1L16.4,14
			L3,0.5C2.3-0.1,1.1,0,0.5,0.7C0,1.4,0,2.3,0.5,3L14,16.4L0.5,29.9c-0.6,0.7-0.6,1.8,0.1,2.5C1.3,33,2.3,33,3,32.4l13.4-13.4
			l13.4,13.4c0.7,0.7,1.8,0.7,2.5,0S33.1,30.6,32.4,29.9z"/>
	</g>
</g>
</svg>
