<?xml version="1.0" encoding="utf-8"?>
<!-- Generator: Adobe Illustrator 21.1.0, SVG Export Plug-In . SVG Version: 6.00 Build 0)  -->
<svg version="1.1" id="圖層_1" xmlns="http://www.w3.org/2000/svg" xmlns:xlink="http://www.w3.org/1999/xlink" x="0px" y="0px"
	 width="1242px" height="1242px" viewBox="0 0 1242 1242" style="enable-background:new 0 0 1242 1242;" xml:space="preserve">
<style type="text/css">
	.st0{fill:#484848;}
	.st1{fill:#FFFFFF;}
</style>
<g>
	<g>
		<path class="st0" d="M327.7,52.6c12.7,0,23.1-10.3,23.1-23.1S340.4,6.5,327.7,6.5s-23.1,10.3-23.1,23.1S314.9,52.6,327.7,52.6z
			 M327.7,9.6c10.9,0,19.8,8.9,19.8,19.8s-8.9,19.8-19.8,19.8c-10.9,0-19.8-8.9-19.8-19.8S316.7,9.6,327.7,9.6z"/>
		<path class="st0" d="M323.8,39.7c-0.9,0-1.6,0.7-1.6,1.6s0.7,1.6,1.6,1.6h10.7c0.9,0,1.6-0.7,1.6-1.6s-0.7-1.6-1.6-1.6h-3.7V25.3
			c0-0.9-0.7-1.6-1.6-1.6h-5.3c-0.9,0-1.6,0.7-1.6,1.6s0.7,1.6,1.6,1.6h3.7v12.7H323.8z"/>
		<circle class="st0" cx="326.9" cy="18.3" r="2.6"/>
	</g>
</g>
<g>
	<path class="st0" d="M231.7,8h-44.1c-0.9,0-1.7,0.3-1.7,1.3v8.6c0,0.9,0.7,1.3,1.7,1.3h2.7V39c0,0.9,0.7,1.7,1.7,1.7h6.1l-7.6,11.8
		c-0.5,0.8-0.3,1.8,0.5,2.3c0.3,0.2,0.6,0.2,0.9,0.2c0.5,0,1.1-0.3,1.4-0.8l8.7-13.6h15.2l8.7,13.6c0.3,0.5,0.9,0.8,1.4,0.8
		c0.3,0,0.6-0.1,0.9-0.2c0.8-0.5,1-1.5,0.5-2.3l-7.5-11.8h6.2c0.9,0,1.7-0.7,1.7-1.7V19.1h2.7c0.9,0,1.7-0.3,1.7-1.3V9.3
		C233.3,8.3,232.6,8,231.7,8z M226.1,37.4l0,0.4H219c0,0-0.1,0-0.1,0h-3.7c0,0-0.1,0-0.1,0h-13.8c0,0-0.1,0-0.2,0h-7.8V19.1h32.9
		V37.4z M230,16.2h-2.7h-35.4h-2.7v-5.3h0h0H230V16.2z"/>
	<path class="st0" d="M201.8,34.1c0.4,0,0.9-0.2,1.2-0.5l2.7-2.7l5.5,1.4c0.6,0.2,1.3,0,1.7-0.5l5.6-6.6c0.6-0.7,0.6-1.8-0.2-2.4
		c-0.4-0.3-1.3-0.5-2,0.2l-4.9,6.2l-5.4-1.4c-0.6-0.2-1.2-0.4-1.6,0l-3.4,3.4c-0.5,0.5-0.8,1-0.7,1.7c0.1,0.5,0.5,0.9,1,1.1
		C201.5,34.1,201.6,34.1,201.8,34.1z"/>
</g>
<g>
	<path class="st0" d="M103.8,38.8H75.4c-0.6,0-1,0.4-1,1s0.4,1,1,1h28.5c0.6,0,1-0.4,1-1S104.4,38.8,103.8,38.8z"/>
	<path class="st0" d="M103.8,46.9H75.4c-0.6,0-1,0.4-1,1s0.4,1,1,1h28.5c0.6,0,1-0.4,1-1S104.4,46.9,103.8,46.9z"/>
	<path class="st0" d="M80.6,25.7l-1.7,6.1c-0.1,0.5,0,0.9,0.4,1.3c0.3,0.2,0.6,0.4,1,0.4c0.1,0,0.2,0,0.3,0l6.5-1.6
		c0.2-0.1,0.5-0.2,0.6-0.3l23.6-22.3c0.3-0.2,0.4-0.6,0.4-0.9c0-0.4-0.1-0.7-0.4-0.9l-4.8-4.5c-0.5-0.5-1.4-0.5-2,0L80.9,25.1
		C80.7,25.3,80.6,25.5,80.6,25.7z M103.5,7.5l2-1.9l2.8,2.7l-2,1.9L103.5,7.5z M82.2,30.4l1-3.6l18.4-17.4l2.8,2.7L86,29.4
		L82.2,30.4z"/>
	<path class="st0" d="M110.3,15.2c-0.8,0-1.4,0.6-1.4,1.3v37.4H70.4V9.5h22.8c0.8,0,1.4-0.6,1.4-1.3c0-0.7-0.6-1.3-1.4-1.3H69
		c-0.8,0-1.4,0.6-1.4,1.3v47c0,0.7,0.6,1.3,1.4,1.3h41.3c0.8,0,1.4-0.6,1.4-1.3V16.5C111.7,15.7,111.1,15.2,110.3,15.2z"/>
</g>
<g>
	<g>
		<g>
			<path class="st0" d="M172.8,46.6c-5.7-2.6-5.9-13.7-5.9-13.9v-7.4c0-7.2-4.4-13.3-10.6-15.9c0-3.7-3-6.7-6.7-6.7
				c-3.7,0-6.7,3-6.7,6.7c-6.2,2.6-10.6,8.8-10.6,15.9v7.4c0,0.3-0.2,11.4-5.9,13.9c-0.7,0.3-1,1-0.9,1.7c0.2,0.7,0.8,1.2,1.5,1.2
				h14.5c0.3,1.6,1.1,3.2,2.3,4.4c1.6,1.6,3.6,2.5,5.8,2.5c2.2,0,4.3-0.9,5.8-2.5c1.2-1.2,2-2.8,2.3-4.4h14.5c0.7,0,1.3-0.5,1.5-1.2
				C173.8,47.6,173.5,46.9,172.8,46.6z M165.3,41.3c0.6,1.8,1.5,3.6,2.7,5.2h-36.7c1.2-1.5,2.1-3.3,2.7-5.2H165.3z M149.6,5.7
				c1.7,0,3.1,1.1,3.5,2.6C152,8.1,150.8,8,149.6,8c-1.2,0-2.4,0.1-3.5,0.4C146.6,6.8,148,5.7,149.6,5.7z M135.4,32.7v-7.4
				c0-7.8,6.4-14.2,14.2-14.2s14.2,6.4,14.2,14.2v7.5c0,0.2,0,2.6,0.6,5.6h-29.8C135.4,35.3,135.4,32.9,135.4,32.7z M149.6,53.4
				c-2.3,0-4.3-1.7-5-3.9h10C154,51.7,151.9,53.4,149.6,53.4z"/>
			<path class="st0" d="M149.6,13.1c-6.5,0-11.8,5.3-11.8,11.8c0,0.8,0.7,1.5,1.5,1.5s1.5-0.7,1.5-1.5c0-4.9,3.9-8.8,8.8-8.8
				c0.8,0,1.5-0.7,1.5-1.5C151.1,13.8,150.5,13.1,149.6,13.1z"/>
		</g>
	</g>
</g>
<g>
	<rect x="246.4" y="6.3" class="st0" width="26.2" height="4.4"/>
	<rect x="246.4" y="16.8" class="st0" width="37.8" height="4.4"/>
	<rect x="246.4" y="27.3" class="st0" width="46.5" height="4.4"/>
	<rect x="246.4" y="37.9" class="st0" width="37.8" height="4.4"/>
	<rect x="246.4" y="48.4" class="st0" width="27.6" height="4.4"/>
</g>
<g>
	<path class="st0" d="M407.2,34.6L407.2,34.6c-1.2-2.8-2.9-5.5-5-8c-2.4-2.9-4.8-4.9-6.2-5.9l4.7-8.7c0.3-0.6,0.2-1.3-0.3-1.7
		c-1.3-1.3-2.7-1.9-4.3-1.9c-1.4,0-2.7,0.5-3.8,1l-0.1,0c-1,0.4-1.9,0.8-2.5,0.6c-2.3-0.8-4.1-1.4-5.8-1.4c-2.2,0-4.1,0.9-5.9,2.8
		c-0.5,0.5-0.5,1.2-0.2,1.8l5.1,7.6c-1.3,1-3.7,3-6,5.8c-2.1,2.5-3.8,5.2-5,8c-1.5,3.5-2.3,7.1-2.3,10.8c0,5,4.1,9.1,9.1,9.1h21.5
		c5,0,9.1-4.1,9.1-9.1C409.5,41.8,408.7,38.1,407.2,34.6z M385.5,22.6h8.3c0.9,0.6,3.6,2.6,6.3,5.9c4.3,5.2,6.5,10.9,6.5,16.9
		c0,1.7-0.6,3.2-1.8,4.4c-1.2,1.2-2.7,1.8-4.4,1.8h-21.5c-3.4,0-6.2-2.8-6.2-6.2c0-6,2.2-11.7,6.5-16.9
		C381.7,25.5,384.4,23.4,385.5,22.6z M393.4,19.8h-7.6l-4.7-7.1c2.1-1.7,4.1-1.3,7.8,0.1c0.4,0.2,0.9,0.2,1.4,0.2
		c1.2,0,2.3-0.5,3.3-0.9c0.9-0.4,1.8-0.8,2.7-0.8c0.4,0,0.8,0.1,1.4,0.4L393.4,19.8z"/>
	<path class="st0" d="M382.9,32.6l3.8,6h-1.6c-1.2,0-1.8,0.4-1.8,1.2c0,0.8,0.6,1.2,1.8,1.2h2.9v1.8h-2.9c-1.2,0-1.8,0.4-1.8,1.2
		c0,0.8,0.6,1.2,1.8,1.2h2.9v1c0,1.7,0.6,2.6,1.7,2.6c1.1,0,1.7-0.9,1.7-2.6v-1h2.9c1.2,0,1.8-0.4,1.8-1.2c0-0.8-0.6-1.2-1.8-1.2
		h-2.9v-1.8h2.9c1.2,0,1.8-0.4,1.8-1.2c0-0.8-0.6-1.2-1.8-1.2h-1.6l3.7-6c0.2-0.4,0.4-0.7,0.5-0.9s0.2-0.5,0.2-0.8
		c0-0.4-0.1-0.7-0.4-0.9c-0.3-0.3-0.6-0.4-1-0.4c-0.3,0-0.6,0.1-0.8,0.2s-0.4,0.3-0.5,0.5c-0.1,0.2-0.3,0.4-0.4,0.7
		c-0.2,0.3-0.3,0.5-0.4,0.7l-3.7,6.1l-4.1-6.4c-0.4-0.6-0.7-1-0.9-1.3c-0.3-0.3-0.6-0.4-1-0.4c-0.4,0-0.8,0.1-1,0.4
		c-0.3,0.3-0.4,0.6-0.4,1.1c0,0.2,0,0.5,0.1,0.7C382.4,31.7,382.6,32.1,382.9,32.6z"/>
</g>
<g>
	<path class="st1" d="M17.6,30.5v11c0,1.1,0.9,2,2,2s2-0.9,2-2v-11c0-1.1-0.9-2-2-2S17.6,29.4,17.6,30.5z"/>
	<path class="st1" d="M27.6,23.5v18c0,1.1,0.9,2,2,2s2-0.9,2-2v-18c0-1.1-0.9-2-2-2S27.6,22.4,27.6,23.5z"/>
	<path class="st1" d="M37.6,27.5v14c0,1.1,0.9,2,2,2s2-0.9,2-2v-14c0-1.1-0.9-2-2-2S37.6,26.4,37.6,27.5z"/>
	<path class="st1" d="M47.6,20.5v21c0,1.1,0.9,2,2,2s2-0.9,2-2v-21c0-1.1-0.9-2-2-2S47.6,19.4,47.6,20.5z"/>
	<path class="st1" d="M53.6,49.5h-42v-42c0-1.1-0.9-2-2-2s-2,0.9-2,2v44c0,1.1,0.9,2,2,2h44c1.1,0,2-0.9,2-2
		C55.6,50.4,54.7,49.5,53.6,49.5z"/>
	<path class="st1" d="M17.6,24.3c0.4,0,0.8-0.1,1.2-0.4l11-9.2l8.9,5.3c0.6,0.4,1.4,0.3,2-0.1l13-10c0.8-0.6,0.9-1.7,0.3-2.5
		c-0.6-0.8-1.7-0.9-2.5-0.3l-12,9.3L30.6,11c-0.7-0.4-1.5-0.3-2.1,0.2l-12,10c-0.8,0.6-0.9,1.8-0.2,2.5
		C16.6,24.1,17.1,24.3,17.6,24.3z"/>
</g>
</svg>
