<?xml version="1.0" encoding="utf-8"?>
<!-- Generator: Adobe Illustrator 22.0.0, SVG Export Plug-In . SVG Version: 6.00 Build 0)  -->
<svg version="1.1" id="圖層_1" xmlns="http://www.w3.org/2000/svg" xmlns:xlink="http://www.w3.org/1999/xlink" x="0px" y="0px"
	 viewBox="0 0 23 23" style="enable-background:new 0 0 23 23;" xml:space="preserve">
<style type="text/css">
	.st0{fill:#277CA5;}
</style>
<title>phone</title>
<g id="圖層_2_1_">
	<g id="圖層_1-2">
		<path class="st0" d="M16.3,0.1H6.7c-0.9,0-1.7,0.7-1.7,1.7v19.4c0,0.9,0.7,1.7,1.7,1.7c0,0,0,0,0,0h9.5c0.9,0,1.7-0.7,1.7-1.7l0,0
			V1.8C17.9,0.9,17.2,0.1,16.3,0.1z M5.8,3.2h11.4v14.4H5.8V3.2z M6.7,0.9h9.5c0.5,0,0.9,0.4,0.9,0.9c0,0,0,0,0,0v0.6H5.8V1.8
			C5.8,1.3,6.2,0.9,6.7,0.9z M16.3,22.1H6.7c-0.5,0-0.9-0.4-0.9-0.9c0,0,0,0,0,0v-2.9h11.4v2.9C17.1,21.7,16.8,22.1,16.3,22.1z"/>
		<path class="st0" d="M11.5,18.7c-0.9,0-1.5,0.7-1.5,1.5s0.7,1.5,1.5,1.5c0.9,0,1.5-0.7,1.5-1.5C13,19.4,12.3,18.7,11.5,18.7
			C11.5,18.7,11.5,18.7,11.5,18.7z M11.5,21c-0.4,0-0.7-0.3-0.7-0.7c0-0.4,0.3-0.7,0.7-0.7s0.7,0.3,0.7,0.7l0,0
			C12.2,20.6,11.9,21,11.5,21z"/>
		<path class="st0" d="M9.9,2h1.5c0.2,0,0.4-0.2,0.4-0.4c0,0,0,0,0,0c0-0.2-0.2-0.4-0.4-0.4c0,0,0,0,0,0H9.9c-0.2,0-0.4,0.2-0.4,0.4
			c0,0,0,0,0,0C9.5,1.8,9.7,2,9.9,2z"/>
		<path class="st0" d="M12.6,2H13c0.2,0,0.4-0.2,0.4-0.4c0,0,0,0,0,0c0-0.2-0.2-0.4-0.4-0.4c0,0,0,0,0,0h-0.4
			c-0.2,0-0.4,0.2-0.4,0.4c0,0,0,0,0,0C12.2,1.8,12.4,2,12.6,2C12.6,2,12.6,2,12.6,2z"/>
	</g>
</g>
</svg>
